<?xml version="1.0" encoding="UTF-8" standalone="no"?>
<!-- Created with Inkscape (http://www.inkscape.org/) -->

<svg
   width="65.116478mm"
   height="10.774101mm"
   viewBox="0 0 65.116478 10.774101"
   version="1.1"
   id="svg1"
   xmlns="http://www.w3.org/2000/svg"
   xmlns:svg="http://www.w3.org/2000/svg">
  <defs
     id="defs1">
    <clipPath
       clipPathUnits="userSpaceOnUse"
       id="clipPath5836">
      <path
         d="M 0,0 H 633.78 V 880.394 H 0 Z"
         transform="translate(-14.999975,-861.14172)"
         id="path5836" />
    </clipPath>
    <clipPath
       clipPathUnits="userSpaceOnUse"
       id="clipPath5834">
      <path
         d="M 0,0 H 633.78 V 880.394 H 0 Z"
         transform="translate(-14.999975,-861.14172)"
         id="path5834" />
    </clipPath>
    <clipPath
       clipPathUnits="userSpaceOnUse"
       id="clipPath5676">
      <path
         d="m 415.156,621.706 h 134.235 v 21.422 H 415.156 Z"
         transform="translate(-433.05089,-628.75352)"
         id="path5676" />
    </clipPath>
    <clipPath
       clipPathUnits="userSpaceOnUse"
       id="clipPath5674">
      <path
         d="m 415.156,621.706 h 134.235 v 21.422 H 415.156 Z"
         transform="translate(-433.05089,-628.75352)"
         id="path5674" />
    </clipPath>
    <clipPath
       clipPathUnits="userSpaceOnUse"
       id="clipPath5672">
      <path
         d="M 10.748,10.748 H 623.031 V 869.646 H 10.748 Z"
         transform="translate(-377.30773,-639.46502)"
         id="path5672" />
    </clipPath>
    <clipPath
       clipPathUnits="userSpaceOnUse"
       id="clipPath5670">
      <path
         d="M 10.748,10.748 H 623.031 V 869.646 H 10.748 Z"
         transform="translate(-377.30773,-639.46502)"
         id="path5670" />
    </clipPath>
  </defs>
  <g
     id="layer1"
     transform="translate(-122.81985,-11.486015)">
    <path
       id="path5669"
       d="m 0,0 c 0,0 -17.898,-3.029 -12.569,1.621 5.328,4.654 32.909,7.808 43.942,9.809 11.034,1.996 39.209,1.539 51.942,-1.669 12.731,-3.203 29.536,-0.059 31.279,-3.097 1.744,-3.04 0.79,-8.337 -10.377,-10.002 -11.166,-1.668 -53.158,3.627 -61.849,0 C 33.676,-6.967 -3.911,-7.047 -3.747,-3.672 -3.583,-0.302 0,0 0,0"
       style="fill:#f4f0b2;fill-opacity:1;fill-rule:nonzero;stroke:none"
       transform="matrix(0.35277776,0,0,-0.35277776,127.60354,16.317471)"
       clip-path="url(#clipPath5670)" />
    <path
       id="path5671"
       d="M 0,0 C 3.05,1.774 35.112,12.853 41.43,13.614 47.747,14.373 57.316,9.61 64.604,8.387 71.893,7.167 83.722,6.337 84.721,5.178 85.72,4.02 77.649,4.107 71.255,3.475 64.865,2.838 58.752,5.665 53.776,4.282 48.798,2.898 45.572,-2.479 42.368,-3.338 29.761,5.835 26.794,6.689 0,0"
       style="fill:#f8f3c3;fill-opacity:1;fill-rule:nonzero;stroke:none"
       transform="matrix(0.35277776,0,0,-0.35277776,127.60354,16.317471)"
       clip-path="url(#clipPath5672)" />
    <path
       id="path5673"
       d="m 0,0 c 0,0 -17.898,-3.027 -12.569,1.623 5.328,4.652 32.908,7.806 43.941,9.804 11.034,1.999 39.209,1.542 51.942,-1.666 12.731,-3.203 29.536,-0.059 31.28,-3.097 1.743,-3.04 0.788,-8.335 -10.377,-10.002 -11.166,-1.668 -53.158,3.627 -61.849,0 C 33.675,-6.967 -3.911,-7.047 -3.748,-3.672 -3.583,-0.299 0,0 0,0"
       style="fill:#f4f0b2;fill-opacity:1;fill-rule:nonzero;stroke:none"
       transform="matrix(0.35277776,0,0,-0.35277776,147.26848,20.09625)"
       clip-path="url(#clipPath5674)" />
    <path
       id="path5675"
       d="M 0,0 C 3.049,1.774 35.111,12.853 41.429,13.614 47.746,14.376 57.315,9.61 64.604,8.39 71.892,7.167 83.722,6.337 84.721,5.179 85.72,4.02 77.649,4.11 71.255,3.475 64.863,2.838 58.752,5.665 53.775,4.283 48.798,2.9 45.572,-2.476 42.368,-3.338 29.761,5.835 26.794,6.691 0,0"
       style="fill:#f8f3c3;fill-opacity:1;fill-rule:nonzero;stroke:none"
       transform="matrix(0.35277776,0,0,-0.35277776,147.26848,20.09625)"
       clip-path="url(#clipPath5676)" />
    <path
       id="path5833"
       d="m 0,0 h -15 m 618.779,0 h 15 M 0,-841.89 h -15 m 618.779,0 h 15 M 4.252,4.252 v 15 m 0,-865.394 v -15 M 599.528,4.252 v 15 m 0,-865.394 v -15"
       style="fill:none;stroke:#ffffff;stroke-width:1.25;stroke-linecap:butt;stroke-linejoin:miter;stroke-miterlimit:10;stroke-dasharray:none;stroke-opacity:1"
       transform="matrix(0.35277776,0,0,-0.35277776,-12.700053,-33.954155)"
       clip-path="url(#clipPath5834)" />
    <path
       id="path5835"
       d="m 0,0 h -15 m 618.779,0 h 15 M 0,-841.89 h -15 m 618.779,0 h 15 M 4.252,4.252 v 15 m 0,-865.394 v -15 M 599.528,4.252 v 15 m 0,-865.394 v -15"
       style="fill:none;stroke:#000000;stroke-width:0.25;stroke-linecap:butt;stroke-linejoin:miter;stroke-miterlimit:10;stroke-dasharray:none;stroke-opacity:1"
       transform="matrix(0.35277776,0,0,-0.35277776,-12.700053,-33.954155)"
       clip-path="url(#clipPath5836)" />
  </g>
</svg>
