<?xml version="1.0" encoding="UTF-8" standalone="no"?>
<!-- Created with Inkscape (http://www.inkscape.org/) -->

<svg
   width="51.159103mm"
   height="15.256175mm"
   viewBox="0 0 51.159103 15.256175"
   version="1.1"
   id="svg1"
   xmlns="http://www.w3.org/2000/svg"
   xmlns:svg="http://www.w3.org/2000/svg">
  <defs
     id="defs1">
    <clipPath
       clipPathUnits="userSpaceOnUse"
       id="clipPath93">
      <path
         d="M 10.748,10.748 H 623.031 V 869.646 H 10.748 Z"
         transform="translate(-526.55151,-717.35122)"
         id="path93" />
    </clipPath>
    <clipPath
       clipPathUnits="userSpaceOnUse"
       id="clipPath95">
      <path
         d="M 10.748,10.748 H 623.031 V 869.646 H 10.748 Z"
         transform="translate(-528.14582,-723.87512)"
         id="path95" />
    </clipPath>
    <clipPath
       clipPathUnits="userSpaceOnUse"
       id="clipPath97">
      <path
         d="m 374.665,712.252 152.317,-11.987 3.365,42.761 -152.316,11.988 z"
         transform="translate(-439.51201,-743.34362)"
         id="path97" />
    </clipPath>
    <clipPath
       clipPathUnits="userSpaceOnUse"
       id="clipPath99">
      <path
         d="m 374.665,712.252 152.317,-11.987 3.365,42.761 -152.316,11.988 z"
         transform="translate(-504.16911,-729.00122)"
         id="path99" />
    </clipPath>
    <clipPath
       clipPathUnits="userSpaceOnUse"
       id="clipPath101">
      <path
         d="M 10.748,10.748 H 623.031 V 869.646 H 10.748 Z"
         transform="translate(-444.27501,-717.81532)"
         id="path101" />
    </clipPath>
    <clipPath
       clipPathUnits="userSpaceOnUse"
       id="clipPath103">
      <path
         d="M 10.748,10.748 H 623.031 V 869.646 H 10.748 Z"
         transform="translate(-432.86291,-731.96092)"
         id="path103" />
    </clipPath>
    <clipPath
       clipPathUnits="userSpaceOnUse"
       id="clipPath105">
      <path
         d="M 10.748,10.748 H 623.031 V 869.646 H 10.748 Z"
         transform="translate(-434.13491,-736.79192)"
         id="path105" />
    </clipPath>
    <clipPath
       clipPathUnits="userSpaceOnUse"
       id="clipPath107">
      <path
         d="M 10.748,10.748 H 623.031 V 869.646 H 10.748 Z"
         transform="translate(-430.36121,-734.53912)"
         id="path107" />
    </clipPath>
    <clipPath
       clipPathUnits="userSpaceOnUse"
       id="clipPath109">
      <path
         d="M 10.748,10.748 H 623.031 V 869.646 H 10.748 Z"
         transform="translate(-437.30151,-738.27942)"
         id="path109" />
    </clipPath>
    <clipPath
       clipPathUnits="userSpaceOnUse"
       id="clipPath111">
      <path
         d="M 10.748,10.748 H 623.031 V 869.646 H 10.748 Z"
         transform="translate(-471.49771,-722.89782)"
         id="path111" />
    </clipPath>
    <clipPath
       clipPathUnits="userSpaceOnUse"
       id="clipPath113">
      <path
         d="M 10.748,10.748 H 623.031 V 869.646 H 10.748 Z"
         transform="translate(-466.46061,-719.82012)"
         id="path113" />
    </clipPath>
    <clipPath
       clipPathUnits="userSpaceOnUse"
       id="clipPath115">
      <path
         d="M 10.748,10.748 H 623.031 V 869.646 H 10.748 Z"
         transform="translate(-470.02191,-720.05662)"
         id="path115" />
    </clipPath>
    <clipPath
       clipPathUnits="userSpaceOnUse"
       id="clipPath117">
      <path
         d="M 10.748,10.748 H 623.031 V 869.646 H 10.748 Z"
         transform="translate(-462.98901,-719.87262)"
         id="path117" />
    </clipPath>
    <clipPath
       clipPathUnits="userSpaceOnUse"
       id="clipPath119">
      <path
         d="M 10.748,10.748 H 623.031 V 869.646 H 10.748 Z"
         transform="translate(-460.03121,-719.86512)"
         id="path119" />
    </clipPath>
    <clipPath
       clipPathUnits="userSpaceOnUse"
       id="clipPath121">
      <path
         d="M 10.748,10.748 H 623.031 V 869.646 H 10.748 Z"
         transform="translate(-441.87901,-738.61382)"
         id="path121" />
    </clipPath>
    <clipPath
       clipPathUnits="userSpaceOnUse"
       id="clipPath123">
      <path
         d="M 10.748,10.748 H 623.031 V 869.646 H 10.748 Z"
         transform="translate(-457.12231,-722.28562)"
         id="path123" />
    </clipPath>
    <clipPath
       clipPathUnits="userSpaceOnUse"
       id="clipPath125">
      <path
         d="M 10.748,10.748 H 623.031 V 869.646 H 10.748 Z"
         transform="translate(-464.27211,-738.77282)"
         id="path125" />
    </clipPath>
    <clipPath
       clipPathUnits="userSpaceOnUse"
       id="clipPath127">
      <path
         d="M 10.748,10.748 H 623.031 V 869.646 H 10.748 Z"
         transform="translate(-470.75151,-736.23382)"
         id="path127" />
    </clipPath>
    <clipPath
       clipPathUnits="userSpaceOnUse"
       id="clipPath129">
      <path
         d="M 10.748,10.748 H 623.031 V 869.646 H 10.748 Z"
         transform="translate(-467.47741,-739.16862)"
         id="path129" />
    </clipPath>
    <clipPath
       clipPathUnits="userSpaceOnUse"
       id="clipPath131">
      <path
         d="M 10.748,10.748 H 623.031 V 869.646 H 10.748 Z"
         transform="translate(-470.78111,-732.40822)"
         id="path131" />
    </clipPath>
  </defs>
  <g
     id="layer1"
     transform="translate(-72.495836,-146.05)">
    <path
       id="path92"
       d="m 0,0 c -3.564,-6.975 -34.103,-14.368 -73.481,-11.269 -39.376,3.099 -70.654,13.79 -69.86,23.879 0.174,2.208 1.12,6.961 4.074,8.699 10.548,6.208 37.901,6.379 68.662,3.958 C -39.101,22.787 -2.385,19.669 1.393,8.345 2.233,5.829 0.921,1.802 0,0"
       style="fill:#b41b1b;fill-opacity:1;fill-rule:nonzero;stroke:none"
       transform="matrix(0.35277776,0,0,-0.35277776,123.06857,157.07445)"
       clip-path="url(#clipPath93)" />
    <path
       id="path94"
       d="m 0,0 c -0.794,-10.089 -33.359,-15.755 -72.736,-12.657 -39.376,3.099 -70.653,13.79 -69.858,23.879 0.794,10.09 33.358,15.756 72.734,12.657 C -30.484,20.78 0.794,10.089 0,0"
       style="fill:#ef3730;fill-opacity:1;fill-rule:nonzero;stroke:none"
       transform="matrix(0.35277776,0,0,-0.35277776,123.631,154.77296)"
       clip-path="url(#clipPath95)" />
    <path
       id="path96"
       d="m 0,0 c 0,0 -14.82,3.343 -39.146,-5.142 -24.326,-8.486 22.132,-15.832 22.132,-15.832 l 23.166,6.692 c 0,0 -5.933,-0.38 -7.955,0.154 1.667,1.646 -0.561,4.664 -1.103,4.86 1.62,1.576 4.926,-1.954 3.637,1.65 3.323,-0.803 7.863,0.736 7.863,0.736 z"
       style="fill:#bb2d2a;fill-opacity:1;fill-rule:nonzero;stroke:none"
       transform="matrix(0.35277776,0,0,-0.35277776,92.362967,147.9049)"
       clip-path="url(#clipPath97)" />
    <path
       id="path98"
       d="M 0,0 C 0,0 12.896,0.984 4.804,5.732 -14.83,17.254 -51.103,15.936 -51.103,15.936 l 3.731,-9.272 c 0,0 2.746,5.278 3.173,4.582 0.427,-0.695 1.128,-3.324 1.128,-3.324 0,0 4.147,0.986 4.618,0.042 -0.602,-3.255 3.602,-3.935 1.212,-4.351 -0.774,-0.134 -6.794,-0.749 -6.794,-0.749 z"
       style="fill:#bb2d2a;fill-opacity:1;fill-rule:nonzero;stroke:none"
       transform="matrix(0.35277776,0,0,-0.35277776,115.17255,152.96458)"
       clip-path="url(#clipPath99)" />
    <path
       id="path100"
       d="M 0,0 C 0,0 23.084,-6.806 48.744,-4.497 72.447,-2.363 61.867,5.53 61.867,5.53 c 0,0 -41.298,5.169 -42.377,5.361 -1.078,0.192 5.631,-0.926 4.648,-2.662 -1.163,-4.5 -4.335,-2.447 -4.335,-2.447 0,0 -2.835,-2.323 -3.285,-1.867 -0.451,0.458 -4.091,2.023 -4.237,2.459 -0.148,0.434 0.124,3.169 0.124,3.169 z"
       style="fill:#bb2d2a;fill-opacity:1;fill-rule:nonzero;stroke:none"
       transform="matrix(0.35277776,0,0,-0.35277776,94.043246,156.91072)"
       clip-path="url(#clipPath101)" />
    <path
       id="path102"
       d="m 0,0 c 0,0 -4.584,0.168 -3.306,-3.183 0,0 1.281,-2.35 4.008,1.049 0,0 1.014,0.809 1.155,1.44 0.141,0.63 -0.135,0.539 -0.501,0.722 C 0.989,0.212 0,0 0,0"
       style="fill:#fbc63b;fill-opacity:1;fill-rule:nonzero;stroke:none"
       transform="matrix(0.35277776,0,0,-0.35277776,90.017311,151.92047)"
       clip-path="url(#clipPath103)" />
    <path
       id="path104"
       d="m 0,0 c 0,0 -3.138,2.945 -4.534,0.438 0,0 -0.707,-1.999 3.564,-1.965 0,0 1.277,-0.219 1.811,0.014 0.533,0.235 0.275,0.359 0.14,0.682 C 0.847,-0.51 0,0 0,0"
       style="fill:#fbc63b;fill-opacity:1;fill-rule:nonzero;stroke:none"
       transform="matrix(0.35277776,0,0,-0.35277776,90.466045,150.2162)"
       clip-path="url(#clipPath105)" />
    <path
       id="path106"
       d="m 0,0 c 0,0 -3.519,0.731 -2.942,-2.044 0,0 0.704,-1.998 3.224,0.291 0,0 0.881,0.497 1.068,0.969 0.184,0.473 -0.04,0.437 -0.299,0.628 C 0.789,0.035 0,0 0,0"
       style="fill:#fbc63b;fill-opacity:1;fill-rule:nonzero;stroke:none"
       transform="matrix(0.35277776,0,0,-0.35277776,89.134767,151.01094)"
       clip-path="url(#clipPath107)" />
    <path
       id="path108"
       d="m 0,0 c 0,0 -2.788,3.141 -4.4,1.133 0,0 -0.886,-1.665 3.301,-2.337 0,0 1.23,-0.403 1.775,-0.283 0.546,0.122 0.304,0.276 0.205,0.585 C 0.781,-0.592 0,0 0,0"
       style="fill:#fbc63b;fill-opacity:1;fill-rule:nonzero;stroke:none"
       transform="matrix(0.35277776,0,0,-0.35277776,91.58315,149.69144)"
       clip-path="url(#clipPath109)" />
    <path
       id="path110"
       d="m 0,0 c 0,0 3.875,-2.457 4.461,1.081 0,0 0.078,2.675 -3.991,1.116 0,0 -1.284,-0.187 -1.723,-0.662 C -1.693,1.063 -1.409,1.002 -1.185,0.659 -0.961,0.315 0,0 0,0"
       style="fill:#fbc63b;fill-opacity:1;fill-rule:nonzero;stroke:none"
       transform="matrix(0.35277776,0,0,-0.35277776,103.64681,155.11773)"
       clip-path="url(#clipPath111)" />
    <path
       id="path112"
       d="m 0,0 c 0,0 -0.457,-4.069 2.854,-2.526 0,0 2.348,1.421 -0.75,3.409 0,0 -0.716,0.796 -1.315,0.842 C 0.19,1.77 0.259,1.539 0.06,1.193 -0.14,0.847 0,0 0,0"
       style="fill:#fbc63b;fill-opacity:1;fill-rule:nonzero;stroke:none"
       transform="matrix(0.35277776,0,0,-0.35277776,101.86983,156.20347)"
       clip-path="url(#clipPath113)" />
    <path
       id="path114"
       d="m 0,0 c 0,0 2.13,-2.896 3.554,-0.445 0,0 0.813,1.955 -2.592,1.937 0,0 -0.988,0.22 -1.441,-0.007 C -0.934,1.258 -0.745,1.134 -0.677,0.818 -0.611,0.502 0,0 0,0"
       style="fill:#fbc63b;fill-opacity:1;fill-rule:nonzero;stroke:none"
       transform="matrix(0.35277776,0,0,-0.35277776,103.12618,156.12004)"
       clip-path="url(#clipPath115)" />
    <path
       id="path116"
       d="m 0,0 c 0,0 -0.027,-4.2 2.514,-3.784 0,0 1.775,0.646 -0.892,3.945 0,0 -0.645,1.123 -1.132,1.396 C 0.005,1.832 0.081,1.556 -0.052,1.26 -0.185,0.962 0,0 0,0"
       style="fill:#fbc63b;fill-opacity:1;fill-rule:nonzero;stroke:none"
       transform="matrix(0.35277776,0,0,-0.35277776,100.64513,156.18495)"
       clip-path="url(#clipPath117)" />
    <path
       id="path118"
       d="m 0,0 c 0,0 -1.931,-1.763 0.517,-2.255 0,0 1.873,-0.194 0.999,1.897 0,0 -0.064,0.642 -0.372,0.886 C 0.836,0.77 0.778,0.634 0.526,0.545 0.272,0.454 0,0 0,0"
       style="fill:#fbc63b;fill-opacity:1;fill-rule:nonzero;stroke:none"
       transform="matrix(0.35277776,0,0,-0.35277776,99.601684,156.1876)"
       clip-path="url(#clipPath119)" />
    <path
       id="path120"
       d="m 0,0 c 0,0 0.335,2.593 -1.852,1.386 0,0 -1.554,-1.06 0.464,-2.091 0,0 0.462,-0.45 0.855,-0.438 0.392,0.016 0.348,0.155 0.483,0.388 C 0.085,-0.524 0,0 0,0"
       style="fill:#fbc63b;fill-opacity:1;fill-rule:nonzero;stroke:none"
       transform="matrix(0.35277776,0,0,-0.35277776,93.197992,149.57347)"
       clip-path="url(#clipPath121)" />
    <path
       id="path122"
       d="m 0,0 c 0,0 -2.107,-2.316 0.293,-3.078 0,0 1.854,-0.334 1.188,2.534 0,0 10e-4,0.873 -0.284,1.216 C 0.913,1.012 0.842,0.831 0.581,0.719 0.318,0.605 0,0 0,0"
       style="fill:#fbc63b;fill-opacity:1;fill-rule:nonzero;stroke:none"
       transform="matrix(0.35277776,0,0,-0.35277776,98.575489,155.3337)"
       clip-path="url(#clipPath123)" />
    <path
       id="path124"
       d="m 0,0 c 0,0 2.14,3.237 -1.417,3.253 0,0 -2.66,-0.266 -0.801,-3.163 0,0 0.286,-0.95 0.791,-1.228 0.504,-0.275 0.542,-0.052 0.864,0.158 C -0.24,-0.768 0,0 0,0"
       style="fill:#fbc63b;fill-opacity:1;fill-rule:nonzero;stroke:none"
       transform="matrix(0.35277776,0,0,-0.35277776,101.09778,149.51738)"
       clip-path="url(#clipPath125)" />
    <path
       id="path126"
       d="m 0,0 c 0,0 3.72,-0.493 3.052,2.27 0,0 -0.782,1.968 -3.386,-0.519 0,0 -0.916,-0.564 -1.102,-1.054 -0.186,-0.49 0.05,-0.439 0.328,-0.614 C -0.83,-0.091 0,0 0,0"
       style="fill:#fbc63b;fill-opacity:1;fill-rule:nonzero;stroke:none"
       transform="matrix(0.35277776,0,0,-0.35277776,103.38357,150.41308)"
       clip-path="url(#clipPath127)" />
    <path
       id="path128"
       d="m 0,0 c 0,0 3.128,1.771 0.862,3.476 0,0 -1.844,1.039 -2.231,-2.343 0,0 -0.333,-0.957 -0.162,-1.434 0.172,-0.477 0.317,-0.304 0.64,-0.275 C -0.57,-0.547 0,0 0,0"
       style="fill:#fbc63b;fill-opacity:1;fill-rule:nonzero;stroke:none"
       transform="matrix(0.35277776,0,0,-0.35277776,102.22854,149.37775)"
       clip-path="url(#clipPath129)" />
    <path
       id="path130"
       d="m 0,0 c 0,0 4.064,-1.058 4.287,1.508 0,0 -0.192,1.878 -4.044,0.103 0,0 -1.247,-0.347 -1.632,-0.753 C -1.774,0.454 -1.488,0.461 -1.235,0.259 -0.979,0.058 0,0 0,0"
       style="fill:#fbc63b;fill-opacity:1;fill-rule:nonzero;stroke:none"
       transform="matrix(0.35277776,0,0,-0.35277776,103.39401,151.76267)"
       clip-path="url(#clipPath131)" />
  </g>
</svg>
