<svg xmlns="http://www.w3.org/2000/svg" xmlns:xlink="http://www.w3.org/1999/xlink" version="1.1" width="300pt" height="300pt" viewBox="0 0 300 300">
<defs>
<clipPath id="clip_2">
<path transform="matrix(1,0,0,-1,0,300)" d="M0 300H300V0H0Z"/>
</clipPath>
</defs>
<g clip-path="url(#clip_2)">
<path transform="matrix(1,0,0,-1,181.0004,186.3477)" d="M0 0C0 0 4.75-43.266 5.75-63.932 12.666-65.266 22-68.599 22.666-73.266 28-75.34 32.416-74.188 34-73.266 36.25-57.849 28-18.599 40.666-2.599 53.333 13.401 85.333 20.734 93.333 39.735 100.762 57.377 92.095 96.001 97.224 112.639 97.494 113.514 96.396 114.167 95.734 113.534 77.95 96.521 77.336 64.053 71.333 57.401 62.083 47.151 25.083 39.818 7.333 20.364 1.307 13.76 0 0 0 0" fill="#231f20"/>
<path transform="matrix(1,0,0,-1,149.1196,34.472688)" d="M0 0C-4.969-31.395-29.127-186.918-24.786-215.807-15.703-217.391-10.786-231.807 .881-231.807 12.547-231.807 17.464-217.391 26.547-215.807 30.888-186.918 6.729-31.395 1.761 0 1.603 1.003 .159 1.003 0 0" fill="#231f20"/>
<path transform="matrix(1,0,0,-1,119.0004,186.3477)" d="M0 0C0 0-4.75-43.266-5.75-63.932-12.667-65.266-22-68.599-22.667-73.266-28-75.34-32.417-74.188-34-73.266-36.25-57.849-28-18.599-40.667-2.599-53.334 13.401-85.334 20.734-93.334 39.735-100.763 57.377-92.096 96.001-97.225 112.639-97.495 113.514-96.397 114.167-95.735 113.534-77.951 96.521-77.337 64.053-71.334 57.401-62.084 47.151-25.084 39.818-7.334 20.364-1.308 13.76 0 0 0 0" fill="#231f20"/>
</g>
</svg>
