<svg xmlns="http://www.w3.org/2000/svg" xmlns:xlink="http://www.w3.org/1999/xlink" version="1.1" width="300pt" height="300pt" viewBox="0 0 300 300">
<defs>
<clipPath id="clip_14">
<path transform="matrix(1,0,0,-1,0,300)" d="M0 300H300V0H0Z"/>
</clipPath>
</defs>
<g clip-path="url(#clip_14)">
<path transform="matrix(1,0,0,-1,25.1302,142.5717)" d="M0 0 174.854 49.818 198.393-32.799 159.925-13.063 167.777-41.521 129.182-21.516 137.163-50.244 98.277-29.399 106.548-58.967 67.857-38.987 75.934-67.689 36.992-48.089 45.318-76.412 6.614-56.744-6.16-11.001C-7.482-6.264-4.73-1.348 0 0" fill="#231f20"/>
<path transform="matrix(1,0,0,-1,280.2473,131.0668)" d="M0 0-8.542 29.62C-10.629 36.855-15.421 42.852-22.036 46.506-28.651 50.159-36.279 51.023-43.514 48.937L-70.038 41.287-62.85 15.797-36.175 23.489C-36.005 23.538-35.842 23.558-35.689 23.556-35.342 23.552-35.049 23.437-34.841 23.322-34.542 23.157-34.151 22.843-33.989 22.282L-25.447-7.339C-25.285-7.899-25.448-8.374-25.614-8.673-25.779-8.973-26.094-9.363-26.654-9.524L-53.524-17.273-46.337-42.765-19.315-34.972H-19.316C-12.081-32.886-6.085-28.093-2.431-21.478 1.223-14.862 2.086-7.234 0 0" fill="#231f20"/>
</g>
</svg>
