<?xml version="1.0" encoding="UTF-8" standalone="no"?>
<!-- Created with Inkscape (http://www.inkscape.org/) -->

<svg
   width="66.135536mm"
   height="13.748216mm"
   viewBox="0 0 66.135536 13.748216"
   version="1.1"
   id="svg1"
   xmlns="http://www.w3.org/2000/svg"
   xmlns:svg="http://www.w3.org/2000/svg">
  <defs
     id="defs1">
    <clipPath
       clipPathUnits="userSpaceOnUse"
       id="clipPath81">
      <path
         d="m 365.656,685.328 h 123.978 v 35.277 H 365.656 Z"
         transform="translate(-488.26521,-705.22972)"
         id="path81" />
    </clipPath>
    <clipPath
       clipPathUnits="userSpaceOnUse"
       id="clipPath83">
      <path
         d="m 365.656,685.328 h 123.978 v 35.277 H 365.656 Z"
         transform="translate(-488.75441,-710.95002)"
         id="path83" />
    </clipPath>
    <clipPath
       clipPathUnits="userSpaceOnUse"
       id="clipPath85">
      <path
         d="m 365.656,685.328 h 123.978 v 35.277 H 365.656 Z"
         transform="translate(-426.52331,-718.96442)"
         id="path85" />
    </clipPath>
    <clipPath
       clipPathUnits="userSpaceOnUse"
       id="clipPath87">
      <path
         d="M 427.644,685.857 550.699,670.747 555,705.765 431.945,720.872 Z"
         transform="translate(-551.76542,-690.66852)"
         id="path87" />
    </clipPath>
    <clipPath
       clipPathUnits="userSpaceOnUse"
       id="clipPath89">
      <path
         d="M 427.644,685.857 550.699,670.747 555,705.765 431.945,720.872 Z"
         transform="translate(-552.94952,-696.28712)"
         id="path89" />
    </clipPath>
    <clipPath
       clipPathUnits="userSpaceOnUse"
       id="clipPath91">
      <path
         d="M 427.644,685.857 550.699,670.747 555,705.765 431.945,720.872 Z"
         transform="translate(-492.15871,-711.82522)"
         id="path91" />
    </clipPath>
  </defs>
  <g
     id="layer1"
     transform="translate(-65.881242,-114.82917)">
    <path
       id="path80"
       d="m 0,0 c -1.106,2.881 1.022,7.4 -5.359,9.605 -11.087,3.831 -35.162,5.773 -55.209,5.773 -21.259,0 -44.443,-2.795 -55.328,-7.028 -4.177,-1.622 -3.417,-4.833 -4.304,-6.758 10.118,4.637 31.731,6.364 57.99,6.364 C -35.327,7.956 -6.659,7.025 0,0"
       style="fill:#cd9ebf;fill-opacity:1;fill-rule:nonzero;stroke:none"
       transform="matrix(0.35143532,-0.0307466,-0.0307466,-0.35143532,108.90847,119.11757)"
       clip-path="url(#clipPath81)" />
    <path
       id="path82"
       d="m 0,0 c -0.002,0.005 -0.44,0.306 -0.444,0.311 0.196,-0.508 0.411,-1.07 0.411,-1.591 0,-8.613 -26.942,-15.534 -60.555,-15.534 -33.617,0 -60.589,6.98 -60.589,15.593 0,1.076 0.291,1.459 1.099,2.473 l 0.006,0.344 c -2.391,-1.671 -3.025,-8.059 -3.025,-9.941 0,-8.616 27.249,-17.278 60.865,-17.278 33.617,0 59.033,9.483 61.593,15.639 C 0.022,-8.394 0.881,-2.079 0,0"
       style="fill:#8b1862;fill-opacity:1;fill-rule:nonzero;stroke:none"
       transform="matrix(0.35143532,-0.0307466,-0.0307466,-0.35143532,108.90451,117.09221)"
       clip-path="url(#clipPath83)" />
    <path
       id="path84"
       d="m 0,0 c 15.016,0 28.354,-0.096 39.52,-1.256 15.569,-1.619 20.109,-4.834 21.166,-7.255 0.123,-0.323 0.181,-0.627 0.181,-0.928 0,-2.507 -4.36,-6.302 -16.593,-9.438 -11.368,-2.911 -26.508,-4.516 -42.632,-4.516 -16.125,0 -31.265,1.605 -42.632,4.516 -12.234,3.136 -16.594,6.931 -16.594,9.438 0,0.618 0.248,1.268 0.736,1.931 C -51.694,-4.049 -37.618,0 0,0 m 0,1.642 c -26.261,0 -51.736,-2.679 -57.992,-7.942 -0.808,-1.014 -1.234,-2.066 -1.234,-3.139 0,-8.613 27.252,-15.595 60.868,-15.595 33.616,0 60.867,6.982 60.867,15.595 0,0.52 -0.106,1.037 -0.299,1.545 C 58.222,1.447 26.881,1.642 0,1.642"
       style="fill:#a84494;fill-opacity:1;fill-rule:nonzero;stroke:none"
       transform="matrix(0.35143532,-0.0307466,-0.0307466,-0.35143532,86.787893,116.18906)"
       clip-path="url(#clipPath85)" />
    <path
       id="path86"
       d="m 0,0 c -0.745,2.995 1.917,7.221 -4.148,10.188 -10.539,5.154 -34.196,10.012 -54.094,12.456 -21.1,2.589 -44.453,2.643 -55.773,-0.231 -4.342,-1.104 -3.981,-4.379 -5.095,-6.183 10.608,3.37 32.27,2.449 58.334,-0.752 C -34.094,12.203 -5.752,7.785 0,0"
       style="fill:#cd9ebf;fill-opacity:1;fill-rule:nonzero;stroke:none"
       transform="matrix(0.35143532,-0.0307466,-0.0307466,-0.35143532,131.6724,122.28247)"
       clip-path="url(#clipPath87)" />
    <path
       id="path88"
       d="m 0,0 c -0.001,0.005 -0.401,0.358 -0.403,0.363 0.131,-0.529 0.277,-1.112 0.214,-1.629 -1.05,-8.55 -28.633,-12.137 -62,-8.04 -33.366,4.097 -59.284,14.313 -58.234,22.862 0.131,1.067 0.465,1.413 1.392,2.32 l 0.048,0.342 c -2.576,-1.37 -3.986,-7.631 -4.216,-9.5 -1.05,-8.55 24.943,-20.47 58.309,-24.566 33.363,-4.097 59.747,2.217 63.037,8.017 C -1.002,-8.334 0.619,-2.171 0,0"
       style="fill:#8b1862;fill-opacity:1;fill-rule:nonzero;stroke:none"
       transform="matrix(0.35143532,-0.0307466,-0.0307466,-0.35143532,131.91578,120.27149)"
       clip-path="url(#clipPath89)" />
    <path
       id="path90"
       d="m 0,0 c 14.902,-1.83 28.13,-3.549 39.071,-6.062 15.256,-3.506 19.371,-7.248 20.126,-9.781 0.081,-0.335 0.103,-0.644 0.065,-0.943 -0.305,-2.488 -5.095,-5.725 -17.62,-7.345 -11.636,-1.505 -26.859,-1.252 -42.864,0.713 -16.004,1.965 -30.836,5.401 -41.763,9.677 -11.761,4.603 -15.626,8.902 -15.321,11.39 0.076,0.613 0.4,1.228 0.964,1.827 C -51.804,2.282 -37.338,4.585 0,0 m 0.2,1.63 c -26.066,3.2 -51.677,3.646 -58.528,-0.816 -0.926,-0.908 -1.476,-1.898 -1.607,-2.965 -1.049,-8.549 25.148,-18.8 58.513,-22.896 33.365,-4.097 61.265,-0.489 62.314,8.06 0.064,0.518 0.022,1.043 -0.11,1.57 C 57.962,-5.658 26.88,-1.646 0.2,1.63"
       style="fill:#a84494;fill-opacity:1;fill-rule:nonzero;stroke:none"
       transform="matrix(0.35143532,-0.0307466,-0.0307466,-0.35143532,110.074,116.67996)"
       clip-path="url(#clipPath91)" />
  </g>
</svg>
