<?xml version="1.0" encoding="UTF-8" standalone="no"?>
<!-- Created with Inkscape (http://www.inkscape.org/) -->

<svg
   width="69.132195mm"
   height="15.026078mm"
   viewBox="0 0 69.132195 15.026078"
   version="1.1"
   id="svg1"
   xmlns="http://www.w3.org/2000/svg"
   xmlns:svg="http://www.w3.org/2000/svg">
  <defs
     id="defs1">
    <clipPath
       clipPathUnits="userSpaceOnUse"
       id="clipPath349">
      <path
         d="M 0,858.759 H 611.969 V 0 H 0 Z"
         transform="translate(-242.61412,-564.80441)"
         id="path349" />
    </clipPath>
    <clipPath
       clipPathUnits="userSpaceOnUse"
       id="clipPath351">
      <path
         d="M 0,858.759 H 611.969 V 0 H 0 Z"
         transform="translate(-243.26023,-572.42902)"
         id="path351" />
    </clipPath>
    <clipPath
       clipPathUnits="userSpaceOnUse"
       id="clipPath353">
      <path
         d="M 0,858.759 H 611.969 V 0 H 0 Z"
         transform="translate(-201.54418,-567.71351)"
         id="path353" />
    </clipPath>
    <clipPath
       clipPathUnits="userSpaceOnUse"
       id="clipPath355">
      <path
         d="M 0,858.759 H 611.969 V 0 H 0 Z"
         transform="translate(-194.63053,-575.7743)"
         id="path355" />
    </clipPath>
    <clipPath
       clipPathUnits="userSpaceOnUse"
       id="clipPath357">
      <path
         d="M 0,858.759 H 611.969 V 0 H 0 Z"
         transform="translate(-210.59991,-573.53582)"
         id="path357" />
    </clipPath>
    <clipPath
       clipPathUnits="userSpaceOnUse"
       id="clipPath359">
      <path
         d="M 0,858.759 H 611.969 V 0 H 0 Z"
         transform="translate(-193.28907,-572.81432)"
         id="path359" />
    </clipPath>
    <clipPath
       clipPathUnits="userSpaceOnUse"
       id="clipPath361">
      <path
         d="M 0,858.759 H 611.969 V 0 H 0 Z"
         transform="translate(-189.90961,-569.94151)"
         id="path361" />
    </clipPath>
    <clipPath
       clipPathUnits="userSpaceOnUse"
       id="clipPath363">
      <path
         d="M 0,858.759 H 611.969 V 0 H 0 Z"
         transform="translate(-197.76823,-571.30461)"
         id="path363" />
    </clipPath>
    <clipPath
       clipPathUnits="userSpaceOnUse"
       id="clipPath365">
      <path
         d="M 0,858.759 H 611.969 V 0 H 0 Z"
         transform="translate(-213.3294,-573.20111)"
         id="path365" />
    </clipPath>
    <clipPath
       clipPathUnits="userSpaceOnUse"
       id="clipPath367">
      <path
         d="M 0,858.759 H 611.969 V 0 H 0 Z"
         transform="translate(-199.86088,-574.21591)"
         id="path367" />
    </clipPath>
    <clipPath
       clipPathUnits="userSpaceOnUse"
       id="clipPath369">
      <path
         d="M 0,858.759 H 611.969 V 0 H 0 Z"
         transform="translate(-207.58161,-575.77601)"
         id="path369" />
    </clipPath>
    <clipPath
       clipPathUnits="userSpaceOnUse"
       id="clipPath371">
      <path
         d="M 0,858.759 H 611.969 V 0 H 0 Z"
         transform="translate(-212.25448,-571.65152)"
         id="path371" />
    </clipPath>
    <clipPath
       clipPathUnits="userSpaceOnUse"
       id="clipPath373">
      <path
         d="M 0,858.759 H 611.969 V 0 H 0 Z"
         transform="translate(-206.36509,-572.37163)"
         id="path373" />
    </clipPath>
    <clipPath
       clipPathUnits="userSpaceOnUse"
       id="clipPath375">
      <path
         d="M 0,858.759 H 611.969 V 0 H 0 Z"
         transform="translate(-195.45058,-575.49702)"
         id="path375" />
    </clipPath>
    <clipPath
       clipPathUnits="userSpaceOnUse"
       id="clipPath377">
      <path
         d="M 0,858.759 H 611.969 V 0 H 0 Z"
         transform="translate(-201.87298,-574.40932)"
         id="path377" />
    </clipPath>
    <clipPath
       clipPathUnits="userSpaceOnUse"
       id="clipPath379">
      <path
         d="M 0,858.759 H 611.969 V 0 H 0 Z"
         transform="translate(-185.93998,-571.92002)"
         id="path379" />
    </clipPath>
    <clipPath
       clipPathUnits="userSpaceOnUse"
       id="clipPath381">
      <path
         d="M 0,858.759 H 611.969 V 0 H 0 Z"
         transform="translate(-263.31133,-579.76982)"
         id="path381" />
    </clipPath>
    <clipPath
       clipPathUnits="userSpaceOnUse"
       id="clipPath383">
      <path
         d="M 0,858.759 H 611.969 V 0 H 0 Z"
         transform="translate(-263.95738,-587.39452)"
         id="path383" />
    </clipPath>
    <clipPath
       clipPathUnits="userSpaceOnUse"
       id="clipPath385">
      <path
         d="M 0,858.759 H 611.969 V 0 H 0 Z"
         transform="translate(-222.24139,-582.67901)"
         id="path385" />
    </clipPath>
    <clipPath
       clipPathUnits="userSpaceOnUse"
       id="clipPath387">
      <path
         d="M 0,858.759 H 611.969 V 0 H 0 Z"
         transform="translate(-215.32768,-590.7398)"
         id="path387" />
    </clipPath>
    <clipPath
       clipPathUnits="userSpaceOnUse"
       id="clipPath389">
      <path
         d="M 0,858.759 H 611.969 V 0 H 0 Z"
         transform="translate(-231.29713,-588.50132)"
         id="path389" />
    </clipPath>
    <clipPath
       clipPathUnits="userSpaceOnUse"
       id="clipPath391">
      <path
         d="M 0,858.759 H 611.969 V 0 H 0 Z"
         transform="translate(-213.98629,-587.77982)"
         id="path391" />
    </clipPath>
    <clipPath
       clipPathUnits="userSpaceOnUse"
       id="clipPath393">
      <path
         d="M 0,858.759 H 611.969 V 0 H 0 Z"
         transform="translate(-210.60681,-584.90701)"
         id="path393" />
    </clipPath>
    <clipPath
       clipPathUnits="userSpaceOnUse"
       id="clipPath395">
      <path
         d="M 0,858.759 H 611.969 V 0 H 0 Z"
         transform="translate(-218.46538,-586.27011)"
         id="path395" />
    </clipPath>
    <clipPath
       clipPathUnits="userSpaceOnUse"
       id="clipPath397">
      <path
         d="M 0,858.759 H 611.969 V 0 H 0 Z"
         transform="translate(-234.02661,-588.16661)"
         id="path397" />
    </clipPath>
    <clipPath
       clipPathUnits="userSpaceOnUse"
       id="clipPath399">
      <path
         d="M 0,858.759 H 611.969 V 0 H 0 Z"
         transform="translate(-220.55812,-589.18132)"
         id="path399" />
    </clipPath>
    <clipPath
       clipPathUnits="userSpaceOnUse"
       id="clipPath401">
      <path
         d="M 0,858.759 H 611.969 V 0 H 0 Z"
         transform="translate(-228.27883,-590.74151)"
         id="path401" />
    </clipPath>
    <clipPath
       clipPathUnits="userSpaceOnUse"
       id="clipPath403">
      <path
         d="M 0,858.759 H 611.969 V 0 H 0 Z"
         transform="translate(-232.95171,-586.61693)"
         id="path403" />
    </clipPath>
    <clipPath
       clipPathUnits="userSpaceOnUse"
       id="clipPath405">
      <path
         d="M 0,858.759 H 611.969 V 0 H 0 Z"
         transform="translate(-227.06233,-587.33702)"
         id="path405" />
    </clipPath>
    <clipPath
       clipPathUnits="userSpaceOnUse"
       id="clipPath407">
      <path
         d="M 0,858.759 H 611.969 V 0 H 0 Z"
         transform="translate(-216.14779,-590.46252)"
         id="path407" />
    </clipPath>
    <clipPath
       clipPathUnits="userSpaceOnUse"
       id="clipPath409">
      <path
         d="M 0,858.759 H 611.969 V 0 H 0 Z"
         transform="translate(-222.57021,-589.37482)"
         id="path409" />
    </clipPath>
    <clipPath
       clipPathUnits="userSpaceOnUse"
       id="clipPath411">
      <path
         d="M 0,858.759 H 611.969 V 0 H 0 Z"
         transform="translate(-206.63721,-586.88551)"
         id="path411" />
    </clipPath>
    <clipPath
       clipPathUnits="userSpaceOnUse"
       id="clipPath413">
      <path
         d="M 0,858.759 H 611.969 V 0 H 0 Z"
         transform="translate(-151.4583,-567.77222)"
         id="path413" />
    </clipPath>
    <clipPath
       clipPathUnits="userSpaceOnUse"
       id="clipPath415">
      <path
         d="M 0,858.759 H 611.969 V 0 H 0 Z"
         transform="translate(-152.10441,-575.39682)"
         id="path415" />
    </clipPath>
    <clipPath
       clipPathUnits="userSpaceOnUse"
       id="clipPath417">
      <path
         d="M 0,858.759 H 611.969 V 0 H 0 Z"
         transform="translate(-110.3884,-570.68132)"
         id="path417" />
    </clipPath>
    <clipPath
       clipPathUnits="userSpaceOnUse"
       id="clipPath419">
      <path
         d="M 0,858.759 H 611.969 V 0 H 0 Z"
         transform="translate(-103.4747,-578.74211)"
         id="path419" />
    </clipPath>
    <clipPath
       clipPathUnits="userSpaceOnUse"
       id="clipPath421">
      <path
         d="M 0,858.759 H 611.969 V 0 H 0 Z"
         transform="translate(-119.44411,-576.50372)"
         id="path421" />
    </clipPath>
    <clipPath
       clipPathUnits="userSpaceOnUse"
       id="clipPath423">
      <path
         d="M 0,858.759 H 611.969 V 0 H 0 Z"
         transform="translate(-102.13331,-575.7821)"
         id="path423" />
    </clipPath>
    <clipPath
       clipPathUnits="userSpaceOnUse"
       id="clipPath425">
      <path
         d="M 0,858.759 H 611.969 V 0 H 0 Z"
         transform="translate(-98.753799,-572.90932)"
         id="path425" />
    </clipPath>
    <clipPath
       clipPathUnits="userSpaceOnUse"
       id="clipPath427">
      <path
         d="M 0,858.759 H 611.969 V 0 H 0 Z"
         transform="translate(-106.6124,-574.27231)"
         id="path427" />
    </clipPath>
    <clipPath
       clipPathUnits="userSpaceOnUse"
       id="clipPath429">
      <path
         d="M 0,858.759 H 611.969 V 0 H 0 Z"
         transform="translate(-122.1736,-576.16892)"
         id="path429" />
    </clipPath>
    <clipPath
       clipPathUnits="userSpaceOnUse"
       id="clipPath431">
      <path
         d="M 0,858.759 H 611.969 V 0 H 0 Z"
         transform="translate(-108.7051,-577.18372)"
         id="path431" />
    </clipPath>
    <clipPath
       clipPathUnits="userSpaceOnUse"
       id="clipPath433">
      <path
         d="M 0,858.759 H 611.969 V 0 H 0 Z"
         transform="translate(-116.4258,-578.7438)"
         id="path433" />
    </clipPath>
    <clipPath
       clipPathUnits="userSpaceOnUse"
       id="clipPath435">
      <path
         d="M 0,858.759 H 611.969 V 0 H 0 Z"
         transform="translate(-121.0987,-574.61933)"
         id="path435" />
    </clipPath>
    <clipPath
       clipPathUnits="userSpaceOnUse"
       id="clipPath437">
      <path
         d="M 0,858.759 H 611.969 V 0 H 0 Z"
         transform="translate(-115.20931,-575.33942)"
         id="path437" />
    </clipPath>
    <clipPath
       clipPathUnits="userSpaceOnUse"
       id="clipPath439">
      <path
         d="M 0,858.759 H 611.969 V 0 H 0 Z"
         transform="translate(-104.2948,-578.46483)"
         id="path439" />
    </clipPath>
    <clipPath
       clipPathUnits="userSpaceOnUse"
       id="clipPath441">
      <path
         d="M 0,858.759 H 611.969 V 0 H 0 Z"
         transform="translate(-110.7172,-577.37712)"
         id="path441" />
    </clipPath>
    <clipPath
       clipPathUnits="userSpaceOnUse"
       id="clipPath443">
      <path
         d="M 0,858.759 H 611.969 V 0 H 0 Z"
         transform="translate(-94.784198,-574.88782)"
         id="path443" />
    </clipPath>
    <clipPath
       clipPathUnits="userSpaceOnUse"
       id="clipPath445">
      <path
         d="M 0,858.759 H 611.969 V 0 H 0 Z"
         transform="translate(-173.25457,-581.63542)"
         id="path445" />
    </clipPath>
    <clipPath
       clipPathUnits="userSpaceOnUse"
       id="clipPath447">
      <path
         d="M 0,858.759 H 611.969 V 0 H 0 Z"
         transform="translate(-173.90068,-589.26001)"
         id="path447" />
    </clipPath>
    <clipPath
       clipPathUnits="userSpaceOnUse"
       id="clipPath449">
      <path
         d="M 0,858.759 H 611.969 V 0 H 0 Z"
         transform="translate(-132.1847,-584.54451)"
         id="path449" />
    </clipPath>
    <clipPath
       clipPathUnits="userSpaceOnUse"
       id="clipPath451">
      <path
         d="M 0,858.759 H 611.969 V 0 H 0 Z"
         transform="translate(-125.271,-592.6053)"
         id="path451" />
    </clipPath>
    <clipPath
       clipPathUnits="userSpaceOnUse"
       id="clipPath453">
      <path
         d="M 0,858.759 H 611.969 V 0 H 0 Z"
         transform="translate(-141.24043,-590.36691)"
         id="path453" />
    </clipPath>
    <clipPath
       clipPathUnits="userSpaceOnUse"
       id="clipPath455">
      <path
         d="M 0,858.759 H 611.969 V 0 H 0 Z"
         transform="translate(-123.9296,-589.64531)"
         id="path455" />
    </clipPath>
    <clipPath
       clipPathUnits="userSpaceOnUse"
       id="clipPath457">
      <path
         d="M 0,858.759 H 611.969 V 0 H 0 Z"
         transform="translate(-120.5501,-586.77252)"
         id="path457" />
    </clipPath>
    <clipPath
       clipPathUnits="userSpaceOnUse"
       id="clipPath459">
      <path
         d="M 0,858.759 H 611.969 V 0 H 0 Z"
         transform="translate(-128.40871,-588.1356)"
         id="path459" />
    </clipPath>
    <clipPath
       clipPathUnits="userSpaceOnUse"
       id="clipPath461">
      <path
         d="M 0,858.759 H 611.969 V 0 H 0 Z"
         transform="translate(-143.9699,-590.03212)"
         id="path461" />
    </clipPath>
    <clipPath
       clipPathUnits="userSpaceOnUse"
       id="clipPath463">
      <path
         d="M 0,858.759 H 611.969 V 0 H 0 Z"
         transform="translate(-130.5014,-591.04692)"
         id="path463" />
    </clipPath>
    <clipPath
       clipPathUnits="userSpaceOnUse"
       id="clipPath465">
      <path
         d="M 0,858.759 H 611.969 V 0 H 0 Z"
         transform="translate(-138.22211,-592.60701)"
         id="path465" />
    </clipPath>
    <clipPath
       clipPathUnits="userSpaceOnUse"
       id="clipPath467">
      <path
         d="M 0,858.759 H 611.969 V 0 H 0 Z"
         transform="translate(-142.895,-588.48253)"
         id="path467" />
    </clipPath>
    <clipPath
       clipPathUnits="userSpaceOnUse"
       id="clipPath469">
      <path
         d="M 0,858.759 H 611.969 V 0 H 0 Z"
         transform="translate(-137.0056,-589.20262)"
         id="path469" />
    </clipPath>
    <clipPath
       clipPathUnits="userSpaceOnUse"
       id="clipPath471">
      <path
         d="M 0,858.759 H 611.969 V 0 H 0 Z"
         transform="translate(-126.0911,-592.32802)"
         id="path471" />
    </clipPath>
    <clipPath
       clipPathUnits="userSpaceOnUse"
       id="clipPath473">
      <path
         d="M 0,858.759 H 611.969 V 0 H 0 Z"
         transform="translate(-132.5135,-591.24031)"
         id="path473" />
    </clipPath>
    <clipPath
       clipPathUnits="userSpaceOnUse"
       id="clipPath475">
      <path
         d="M 0,858.759 H 611.969 V 0 H 0 Z"
         transform="translate(-116.58051,-588.75102)"
         id="path475" />
    </clipPath>
    <clipPath
       clipPathUnits="userSpaceOnUse"
       id="clipPath477">
      <path
         d="M 0,858.759 H 611.969 V 0 H 0 Z"
         transform="translate(-221.53192,-591.50091)"
         id="path477" />
    </clipPath>
    <clipPath
       clipPathUnits="userSpaceOnUse"
       id="clipPath479">
      <path
         d="M 0,858.759 H 611.969 V 0 H 0 Z"
         transform="translate(-222.17803,-599.12561)"
         id="path479" />
    </clipPath>
    <clipPath
       clipPathUnits="userSpaceOnUse"
       id="clipPath481">
      <path
         d="M 0,858.759 H 611.969 V 0 H 0 Z"
         transform="translate(-180.46198,-594.41002)"
         id="path481" />
    </clipPath>
    <clipPath
       clipPathUnits="userSpaceOnUse"
       id="clipPath485">
      <path
         d="M 0,858.759 H 611.969 V 0 H 0 Z"
         transform="translate(-189.51771,-600.23242)"
         id="path485" />
    </clipPath>
    <clipPath
       clipPathUnits="userSpaceOnUse"
       id="clipPath487">
      <path
         d="M 0,858.759 H 611.969 V 0 H 0 Z"
         transform="translate(-172.20687,-599.51091)"
         id="path487" />
    </clipPath>
    <clipPath
       clipPathUnits="userSpaceOnUse"
       id="clipPath489">
      <path
         d="M 0,858.759 H 611.969 V 0 H 0 Z"
         transform="translate(-168.8274,-596.63812)"
         id="path489" />
    </clipPath>
    <clipPath
       clipPathUnits="userSpaceOnUse"
       id="clipPath491">
      <path
         d="M 0,858.759 H 611.969 V 0 H 0 Z"
         transform="translate(-176.68603,-598.00121)"
         id="path491" />
    </clipPath>
    <clipPath
       clipPathUnits="userSpaceOnUse"
       id="clipPath493">
      <path
         d="M 0,858.759 H 611.969 V 0 H 0 Z"
         transform="translate(-192.24718,-599.89761)"
         id="path493" />
    </clipPath>
    <clipPath
       clipPathUnits="userSpaceOnUse"
       id="clipPath499">
      <path
         d="M 0,858.759 H 611.969 V 0 H 0 Z"
         transform="translate(-191.17228,-598.34802)"
         id="path499" />
    </clipPath>
    <clipPath
       clipPathUnits="userSpaceOnUse"
       id="clipPath501">
      <path
         d="M 0,858.759 H 611.969 V 0 H 0 Z"
         transform="translate(-185.28291,-599.06811)"
         id="path501" />
    </clipPath>
    <clipPath
       clipPathUnits="userSpaceOnUse"
       id="clipPath507">
      <path
         d="M 0,858.759 H 611.969 V 0 H 0 Z"
         transform="translate(-164.85778,-598.61662)"
         id="path507" />
    </clipPath>
  </defs>
  <g
     id="layer1"
     transform="translate(-48.683324,-116.94583)">
    <path
       id="path348"
       d="m 0,0 c -0.369,-1.543 -18.362,-3.559 -41.071,-3.559 -22.709,0 -41.169,1.987 -41.169,3.559 0,0.675 -2.341,8.653 1.06,8.869 7.536,0.652 27.084,-0.645 40.06,-0.645 13.395,0 32.728,1.323 40.236,0.639 C 2.856,8.291 0.152,3.166 0,2.531"
       style="fill:#898a25;fill-opacity:1;fill-rule:nonzero;stroke:none"
       transform="matrix(0.35277776,0,0,-0.35277776,110.13061,130.71637)"
       clip-path="url(#clipPath349)" />
    <path
       id="path350"
       d="m 0,0 c 0,-2.54 -18.677,-4.598 -41.718,-4.598 -23.038,0 -41.716,2.058 -41.716,4.598 0,2.538 18.678,4.595 41.716,4.595 C -18.677,4.595 0,2.538 0,0"
       style="fill:#eadeb4;fill-opacity:1;fill-rule:nonzero;stroke:none"
       transform="matrix(0.35277776,0,0,-0.35277776,110.35855,128.02658)"
       clip-path="url(#clipPath351)" />
    <path
       id="path352"
       d="m 0,0 c -23.492,0 -41.893,2.071 -41.893,4.714 0,2.644 18.401,4.715 41.893,4.715 23.49,0 41.892,-2.071 41.892,-4.715 C 41.892,2.071 23.49,0 0,0 m 0,9.195 c -22.521,0 -41.546,-2.052 -41.546,-4.481 0,-2.428 19.025,-4.479 41.546,-4.479 22.518,0 41.543,2.051 41.543,4.479 0,2.429 -19.025,4.481 -41.543,4.481"
       style="fill:#748f2b;fill-opacity:1;fill-rule:nonzero;stroke:none"
       transform="matrix(0.35277776,0,0,-0.35277776,95.642051,129.69011)"
       clip-path="url(#clipPath353)" />
    <path
       id="path354"
       d="M 0,0 C 0,0 9.129,0.695 13.209,0.223 15.724,-0.068 17.859,0.137 17.387,-0.94 16.924,-1.994 9.344,-2.859 7.597,-3.108 6.402,-3.278 -3.638,-2.224 -3.628,-1.507 -3.611,-0.26 0,0 0,0"
       style="fill:#e9d795;fill-opacity:1;fill-rule:nonzero;stroke:none"
       transform="matrix(0.35277776,0,0,-0.35277776,93.203068,126.84644)"
       clip-path="url(#clipPath355)" />
    <path
       id="path356"
       d="M 0,0 C 1.081,0.464 2.681,1.281 3.964,1.257 6.732,1.208 7.553,1.37 8.556,-1.211 9.166,-2.782 6.813,-3.354 4.459,-3.99 2.332,-4.565 -4.113,-3.292 -6.606,-3.356 -8.311,-3.398 -8.733,-2.02 -7.372,-1.605 -3.236,-0.349 -2.329,-0.998 0,0"
       style="fill:#e9d795;fill-opacity:1;fill-rule:nonzero;stroke:none"
       transform="matrix(0.35277776,0,0,-0.35277776,98.836709,127.63613)"
       clip-path="url(#clipPath357)" />
    <path
       id="path358"
       d="m 0,0 c -1.154,0.377 -7.177,1.906 -9.683,-0.166 -1.923,-1.589 1.851,-2.277 3.896,-3.042 3.013,-1.127 9.878,0.443 12.366,0.574 1.702,0.089 2.75,1.277 1.327,1.583 C 3.579,-0.121 2.485,-0.812 0,0"
       style="fill:#e9d795;fill-opacity:1;fill-rule:nonzero;stroke:none"
       transform="matrix(0.35277776,0,0,-0.35277776,92.729835,127.89066)"
       clip-path="url(#clipPath359)" />
    <path
       id="path360"
       d="m 0,0 c 0,0 2.362,-2.065 3.363,1.31 0,0 0.498,2.527 -2.666,0.792 0,0 -0.947,-0.26 -1.339,-0.735 C -1.034,0.891 -0.843,0.852 -0.739,0.545 -0.635,0.235 0,0 0,0"
       style="fill:#f4e3b7;fill-opacity:1;fill-rule:nonzero;stroke:none"
       transform="matrix(0.35277776,0,0,-0.35277776,91.537622,128.90412)"
       clip-path="url(#clipPath361)" />
    <path
       id="path362"
       d="m 0,0 c 0,0 -1.891,1.714 -4.057,-0.251 0,0 -1.348,-1.513 2.629,-0.96 0,0 1.109,0.003 1.684,0.235 0.576,0.234 0.38,0.291 0.367,0.504 C 0.611,-0.259 0,0 0,0"
       style="fill:#f4e3b7;fill-opacity:1;fill-rule:nonzero;stroke:none"
       transform="matrix(0.35277776,0,0,-0.35277776,94.309979,128.42325)"
       clip-path="url(#clipPath363)" />
    <path
       id="path364"
       d="m 0,0 c 0,0 1.006,-2.386 4.567,-0.847 0,0 2.395,1.275 -2.267,1.769 0,0 -1.21,0.305 -1.981,0.21 C -0.45,1.037 -0.27,0.92 -0.387,0.685 -0.506,0.45 0,0 0,0"
       style="fill:#f4e3b7;fill-opacity:1;fill-rule:nonzero;stroke:none"
       transform="matrix(0.35277776,0,0,-0.35277776,99.799607,127.7542)"
       clip-path="url(#clipPath365)" />
    <path
       id="path366"
       d="m 0,0 c 0,0 3.869,0.169 1.372,1.423 0,0 -2.067,0.861 -2.868,-0.618 0,0 -0.491,-0.371 -0.338,-0.625 0.153,-0.257 0.342,-0.206 0.724,-0.261 C -0.728,-0.134 0,0 0,0"
       style="fill:#f4e3b7;fill-opacity:1;fill-rule:nonzero;stroke:none"
       transform="matrix(0.35277776,0,0,-0.35277776,95.04822,127.39621)"
       clip-path="url(#clipPath367)" />
    <path
       id="path368"
       d="m 0,0 c 0,0 -4.202,1.186 -2.558,-1.015 0,0 1.503,-1.631 3.502,-0.36 0,0 0.808,0.218 0.846,0.539 0.038,0.324 -0.2,0.337 -0.559,0.529 C 0.869,-0.117 0,0 0,0"
       style="fill:#f4e3b7;fill-opacity:1;fill-rule:nonzero;stroke:none"
       transform="matrix(0.35277776,0,0,-0.35277776,97.77192,126.84584)"
       clip-path="url(#clipPath369)" />
    <path
       id="path370"
       d="m 0,0 c 0,0 -4.533,-0.314 -1.517,-1.713 0,0 2.487,-0.948 3.33,0.812 0,0 0.553,0.451 0.355,0.745 C 1.97,0.141 1.752,0.077 1.299,0.127 0.846,0.178 0,0 0,0"
       style="fill:#f4e3b7;fill-opacity:1;fill-rule:nonzero;stroke:none"
       transform="matrix(0.35277776,0,0,-0.35277776,99.420406,128.30087)"
       clip-path="url(#clipPath371)" />
    <path
       id="path372"
       d="m 0,0 c 0,0 -4.533,-0.315 -1.519,-1.712 0,0 2.489,-0.947 3.332,0.811 0,0 0.552,0.451 0.355,0.745 C 1.969,0.141 1.75,0.076 1.299,0.127 0.847,0.18 0,0 0,0"
       style="fill:#f4e3b7;fill-opacity:1;fill-rule:nonzero;stroke:none"
       transform="matrix(0.35277776,0,0,-0.35277776,97.342766,128.04683)"
       clip-path="url(#clipPath373)" />
    <path
       id="path374"
       d="m 0,0 c 0,0 -4.533,-0.314 -1.517,-1.712 0,0 2.487,-0.947 3.33,0.811 0,0 0.552,0.451 0.355,0.747 C 1.969,0.141 1.75,0.076 1.299,0.129 0.846,0.18 0,0 0,0"
       style="fill:#f4e3b7;fill-opacity:1;fill-rule:nonzero;stroke:none"
       transform="matrix(0.35277776,0,0,-0.35277776,93.492364,126.94426)"
       clip-path="url(#clipPath375)" />
    <path
       id="path376"
       d="m 0,0 c 0,0 -4.278,-0.628 0.218,-1.259 0,0 3.499,-0.383 2.545,0.841 0,0 0.1,0.345 -0.406,0.519 C 1.854,0.276 1.697,0.213 1.186,0.205 0.675,0.196 0,0 0,0"
       style="fill:#f4e3b7;fill-opacity:1;fill-rule:nonzero;stroke:none"
       transform="matrix(0.35277776,0,0,-0.35277776,95.758044,127.32798)"
       clip-path="url(#clipPath377)" />
    <path
       id="path378"
       d="m 0,0 c 0,0 -2.406,-2.453 1.467,-0.795 0,0 2.904,1.364 0.945,1.792 0,0 -0.288,0.292 -0.831,0.181 C 1.04,1.067 0.992,0.948 0.636,0.703 0.278,0.457 0,0 0,0"
       style="fill:#f4e3b7;fill-opacity:1;fill-rule:nonzero;stroke:none"
       transform="matrix(0.35277776,0,0,-0.35277776,90.137236,128.20615)"
       clip-path="url(#clipPath379)" />
    <path
       id="path380"
       d="m 0,0 c -0.369,-1.543 -18.362,-3.559 -41.071,-3.559 -22.709,0 -41.169,1.987 -41.169,3.559 0,0.675 -2.341,8.653 1.06,8.869 7.536,0.652 27.084,-0.645 40.06,-0.645 13.395,0 32.728,1.323 40.236,0.639 C 2.856,8.291 0.152,3.166 0,2.531"
       style="fill:#898a25;fill-opacity:1;fill-rule:nonzero;stroke:none"
       transform="matrix(0.35277776,0,0,-0.35277776,117.43213,125.43691)"
       clip-path="url(#clipPath381)" />
    <path
       id="path382"
       d="m 0,0 c 0,-2.54 -18.677,-4.598 -41.718,-4.598 -23.038,0 -41.716,2.058 -41.716,4.598 0,2.538 18.678,4.595 41.716,4.595 C -18.677,4.595 0,2.538 0,0"
       style="fill:#eadeb4;fill-opacity:1;fill-rule:nonzero;stroke:none"
       transform="matrix(0.35277776,0,0,-0.35277776,117.66004,122.74709)"
       clip-path="url(#clipPath383)" />
    <path
       id="path384"
       d="m 0,0 c -23.492,0 -41.893,2.071 -41.893,4.714 0,2.644 18.401,4.715 41.893,4.715 23.49,0 41.892,-2.071 41.892,-4.715 C 41.892,2.071 23.49,0 0,0 m 0,9.195 c -22.521,0 -41.546,-2.052 -41.546,-4.481 0,-2.428 19.025,-4.479 41.546,-4.479 22.518,0 41.543,2.051 41.543,4.479 0,2.429 -19.025,4.481 -41.543,4.481"
       style="fill:#748f2b;fill-opacity:1;fill-rule:nonzero;stroke:none"
       transform="matrix(0.35277776,0,0,-0.35277776,102.94357,124.41061)"
       clip-path="url(#clipPath385)" />
    <path
       id="path386"
       d="M 0,0 C 0,0 9.129,0.695 13.209,0.223 15.724,-0.068 17.859,0.137 17.387,-0.94 16.924,-1.994 9.344,-2.859 7.597,-3.108 6.402,-3.278 -3.638,-2.224 -3.628,-1.507 -3.611,-0.26 0,0 0,0"
       style="fill:#e9d795;fill-opacity:1;fill-rule:nonzero;stroke:none"
       transform="matrix(0.35277776,0,0,-0.35277776,100.50456,121.56694)"
       clip-path="url(#clipPath387)" />
    <path
       id="path388"
       d="M 0,0 C 1.081,0.464 2.681,1.281 3.964,1.257 6.732,1.208 7.553,1.37 8.556,-1.211 9.166,-2.782 6.813,-3.354 4.459,-3.99 2.332,-4.565 -4.113,-3.292 -6.606,-3.356 -8.311,-3.398 -8.733,-2.02 -7.372,-1.605 -3.236,-0.349 -2.329,-0.998 0,0"
       style="fill:#e9d795;fill-opacity:1;fill-rule:nonzero;stroke:none"
       transform="matrix(0.35277776,0,0,-0.35277776,106.13823,122.35663)"
       clip-path="url(#clipPath389)" />
    <path
       id="path390"
       d="m 0,0 c -1.154,0.377 -7.177,1.906 -9.683,-0.166 -1.923,-1.589 1.851,-2.277 3.896,-3.042 3.013,-1.127 9.878,0.443 12.366,0.574 1.702,0.089 2.75,1.277 1.327,1.583 C 3.579,-0.121 2.485,-0.812 0,0"
       style="fill:#e9d795;fill-opacity:1;fill-rule:nonzero;stroke:none"
       transform="matrix(0.35277776,0,0,-0.35277776,100.03136,122.61116)"
       clip-path="url(#clipPath391)" />
    <path
       id="path392"
       d="m 0,0 c 0,0 2.362,-2.065 3.363,1.31 0,0 0.498,2.527 -2.666,0.792 0,0 -0.947,-0.26 -1.339,-0.735 C -1.034,0.891 -0.843,0.852 -0.739,0.545 -0.635,0.235 0,0 0,0"
       style="fill:#f4e3b7;fill-opacity:1;fill-rule:nonzero;stroke:none"
       transform="matrix(0.35277776,0,0,-0.35277776,98.839143,123.62463)"
       clip-path="url(#clipPath393)" />
    <path
       id="path394"
       d="m 0,0 c 0,0 -1.891,1.714 -4.057,-0.251 0,0 -1.348,-1.513 2.629,-0.96 0,0 1.109,0.003 1.684,0.235 0.576,0.234 0.38,0.291 0.367,0.504 C 0.611,-0.26 0,0 0,0"
       style="fill:#f4e3b7;fill-opacity:1;fill-rule:nonzero;stroke:none"
       transform="matrix(0.35277776,0,0,-0.35277776,101.61147,123.14375)"
       clip-path="url(#clipPath395)" />
    <path
       id="path396"
       d="m 0,0 c 0,0 1.006,-2.386 4.567,-0.847 0,0 2.395,1.275 -2.267,1.769 0,0 -1.21,0.305 -1.981,0.21 C -0.45,1.037 -0.27,0.92 -0.387,0.685 -0.506,0.45 0,0 0,0"
       style="fill:#f4e3b7;fill-opacity:1;fill-rule:nonzero;stroke:none"
       transform="matrix(0.35277776,0,0,-0.35277776,107.10113,122.47471)"
       clip-path="url(#clipPath397)" />
    <path
       id="path398"
       d="m 0,0 c 0,0 3.869,0.169 1.372,1.423 0,0 -2.067,0.861 -2.868,-0.618 0,0 -0.491,-0.371 -0.338,-0.625 0.153,-0.257 0.342,-0.206 0.724,-0.26 C -0.728,-0.134 0,0 0,0"
       style="fill:#f4e3b7;fill-opacity:1;fill-rule:nonzero;stroke:none"
       transform="matrix(0.35277776,0,0,-0.35277776,102.34974,122.11674)"
       clip-path="url(#clipPath399)" />
    <path
       id="path400"
       d="m 0,0 c 0,0 -4.202,1.186 -2.558,-1.015 0,0 1.503,-1.631 3.502,-0.36 0,0 0.808,0.218 0.846,0.539 0.038,0.324 -0.2,0.337 -0.559,0.529 C 0.869,-0.117 0,0 0,0"
       style="fill:#f4e3b7;fill-opacity:1;fill-rule:nonzero;stroke:none"
       transform="matrix(0.35277776,0,0,-0.35277776,105.07344,121.56634)"
       clip-path="url(#clipPath401)" />
    <path
       id="path402"
       d="m 0,0 c 0,0 -4.533,-0.314 -1.517,-1.713 0,0 2.487,-0.948 3.33,0.812 0,0 0.553,0.451 0.355,0.745 C 1.97,0.141 1.752,0.077 1.299,0.127 0.846,0.178 0,0 0,0"
       style="fill:#f4e3b7;fill-opacity:1;fill-rule:nonzero;stroke:none"
       transform="matrix(0.35277776,0,0,-0.35277776,106.72193,123.0214)"
       clip-path="url(#clipPath403)" />
    <path
       id="path404"
       d="m 0,0 c 0,0 -4.533,-0.314 -1.519,-1.712 0,0 2.489,-0.947 3.332,0.811 0,0 0.552,0.451 0.355,0.745 C 1.969,0.141 1.75,0.076 1.299,0.127 0.847,0.18 0,0 0,0"
       style="fill:#f4e3b7;fill-opacity:1;fill-rule:nonzero;stroke:none"
       transform="matrix(0.35277776,0,0,-0.35277776,104.64429,122.76737)"
       clip-path="url(#clipPath405)" />
    <path
       id="path406"
       d="m 0,0 c 0,0 -4.533,-0.315 -1.517,-1.712 0,0 2.487,-0.947 3.33,0.811 0,0 0.552,0.451 0.355,0.747 C 1.969,0.141 1.75,0.076 1.299,0.129 0.846,0.18 0,0 0,0"
       style="fill:#f4e3b7;fill-opacity:1;fill-rule:nonzero;stroke:none"
       transform="matrix(0.35277776,0,0,-0.35277776,100.79388,121.66476)"
       clip-path="url(#clipPath407)" />
    <path
       id="path408"
       d="m 0,0 c 0,0 -4.278,-0.628 0.218,-1.259 0,0 3.499,-0.383 2.545,0.841 0,0 0.1,0.345 -0.406,0.519 C 1.854,0.276 1.697,0.213 1.186,0.204 0.675,0.196 0,0 0,0"
       style="fill:#f4e3b7;fill-opacity:1;fill-rule:nonzero;stroke:none"
       transform="matrix(0.35277776,0,0,-0.35277776,103.05956,122.04848)"
       clip-path="url(#clipPath409)" />
    <path
       id="path410"
       d="m 0,0 c 0,0 -2.406,-2.453 1.467,-0.795 0,0 2.904,1.364 0.945,1.792 0,0 -0.288,0.292 -0.831,0.181 C 1.04,1.067 0.992,0.948 0.636,0.703 0.278,0.457 0,0 0,0"
       style="fill:#f4e3b7;fill-opacity:1;fill-rule:nonzero;stroke:none"
       transform="matrix(0.35277776,0,0,-0.35277776,97.438757,122.92665)"
       clip-path="url(#clipPath411)" />
    <path
       id="path412"
       d="m 0,0 c -0.369,-1.543 -18.362,-3.559 -41.071,-3.559 -22.709,0 -41.169,1.987 -41.169,3.559 0,0.675 -2.341,8.653 1.06,8.869 7.536,0.652 27.084,-0.645 40.06,-0.645 13.395,0 32.728,1.323 40.236,0.639 C 2.856,8.291 0.152,3.166 0,2.531"
       style="fill:#898a25;fill-opacity:1;fill-rule:nonzero;stroke:none"
       transform="matrix(0.35277776,0,0,-0.35277776,77.972858,129.6694)"
       clip-path="url(#clipPath413)" />
    <path
       id="path414"
       d="m 0,0 c 0,-2.54 -18.677,-4.598 -41.718,-4.598 -23.038,0 -41.716,2.058 -41.716,4.598 0,2.538 18.678,4.595 41.716,4.595 C -18.677,4.595 0,2.538 0,0"
       style="fill:#eadeb4;fill-opacity:1;fill-rule:nonzero;stroke:none"
       transform="matrix(0.35277776,0,0,-0.35277776,78.200797,126.97961)"
       clip-path="url(#clipPath415)" />
    <path
       id="path416"
       d="m 0,0 c -23.492,0 -41.893,2.071 -41.893,4.714 0,2.644 18.401,4.715 41.893,4.715 23.49,0 41.892,-2.071 41.892,-4.715 C 41.892,2.071 23.49,0 0,0 m 0,9.195 c -22.521,0 -41.546,-2.052 -41.546,-4.481 0,-2.428 19.025,-4.479 41.546,-4.479 22.518,0 41.543,2.051 41.543,4.479 0,2.429 -19.025,4.481 -41.543,4.481"
       style="fill:#748f2b;fill-opacity:1;fill-rule:nonzero;stroke:none"
       transform="matrix(0.35277776,0,0,-0.35277776,63.484323,128.64313)"
       clip-path="url(#clipPath417)" />
    <path
       id="path418"
       d="M 0,0 C 0,0 9.129,0.695 13.209,0.223 15.724,-0.068 17.859,0.137 17.387,-0.94 16.924,-1.994 9.344,-2.859 7.597,-3.108 6.402,-3.278 -3.638,-2.224 -3.628,-1.507 -3.611,-0.259 0,0 0,0"
       style="fill:#e9d795;fill-opacity:1;fill-rule:nonzero;stroke:none"
       transform="matrix(0.35277776,0,0,-0.35277776,61.045325,125.79946)"
       clip-path="url(#clipPath419)" />
    <path
       id="path420"
       d="M 0,0 C 1.081,0.464 2.681,1.281 3.964,1.257 6.732,1.208 7.553,1.37 8.556,-1.211 9.166,-2.782 6.813,-3.354 4.459,-3.99 2.332,-4.565 -4.113,-3.292 -6.606,-3.356 -8.311,-3.398 -8.733,-2.02 -7.372,-1.605 -3.236,-0.349 -2.329,-0.998 0,0"
       style="fill:#e9d795;fill-opacity:1;fill-rule:nonzero;stroke:none"
       transform="matrix(0.35277776,0,0,-0.35277776,66.678976,126.58912)"
       clip-path="url(#clipPath421)" />
    <path
       id="path422"
       d="m 0,0 c -1.154,0.377 -7.177,1.906 -9.683,-0.166 -1.923,-1.589 1.851,-2.277 3.896,-3.042 3.013,-1.127 9.878,0.443 12.366,0.574 1.702,0.089 2.75,1.277 1.327,1.583 C 3.579,-0.121 2.485,-0.812 0,0"
       style="fill:#e9d795;fill-opacity:1;fill-rule:nonzero;stroke:none"
       transform="matrix(0.35277776,0,0,-0.35277776,60.57211,126.84369)"
       clip-path="url(#clipPath423)" />
    <path
       id="path424"
       d="m 0,0 c 0,0 2.362,-2.065 3.363,1.31 0,0 0.498,2.527 -2.666,0.792 0,0 -0.947,-0.26 -1.339,-0.735 C -1.034,0.891 -0.843,0.852 -0.739,0.545 -0.635,0.235 0,0 0,0"
       style="fill:#f4e3b7;fill-opacity:1;fill-rule:nonzero;stroke:none"
       transform="matrix(0.35277776,0,0,-0.35277776,59.379889,127.85714)"
       clip-path="url(#clipPath425)" />
    <path
       id="path426"
       d="m 0,0 c 0,0 -1.891,1.714 -4.057,-0.251 0,0 -1.348,-1.513 2.629,-0.96 0,0 1.109,0.003 1.684,0.235 0.576,0.234 0.38,0.291 0.367,0.504 C 0.611,-0.259 0,0 0,0"
       style="fill:#f4e3b7;fill-opacity:1;fill-rule:nonzero;stroke:none"
       transform="matrix(0.35277776,0,0,-0.35277776,62.152233,127.37631)"
       clip-path="url(#clipPath427)" />
    <path
       id="path428"
       d="m 0,0 c 0,0 1.006,-2.386 4.567,-0.847 0,0 2.395,1.275 -2.267,1.769 0,0 -1.21,0.305 -1.981,0.21 C -0.45,1.037 -0.27,0.92 -0.387,0.685 -0.506,0.45 0,0 0,0"
       style="fill:#f4e3b7;fill-opacity:1;fill-rule:nonzero;stroke:none"
       transform="matrix(0.35277776,0,0,-0.35277776,67.641879,126.70723)"
       clip-path="url(#clipPath429)" />
    <path
       id="path430"
       d="m 0,0 c 0,0 3.869,0.169 1.372,1.423 0,0 -2.067,0.861 -2.868,-0.618 0,0 -0.491,-0.371 -0.338,-0.625 0.153,-0.257 0.342,-0.206 0.724,-0.261 C -0.728,-0.134 0,0 0,0"
       style="fill:#f4e3b7;fill-opacity:1;fill-rule:nonzero;stroke:none"
       transform="matrix(0.35277776,0,0,-0.35277776,62.890492,126.34923)"
       clip-path="url(#clipPath431)" />
    <path
       id="path432"
       d="m 0,0 c 0,0 -4.202,1.186 -2.558,-1.015 0,0 1.503,-1.631 3.502,-0.36 0,0 0.808,0.218 0.846,0.539 0.038,0.324 -0.2,0.337 -0.559,0.529 C 0.869,-0.117 0,0 0,0"
       style="fill:#f4e3b7;fill-opacity:1;fill-rule:nonzero;stroke:none"
       transform="matrix(0.35277776,0,0,-0.35277776,65.614184,125.79887)"
       clip-path="url(#clipPath433)" />
    <path
       id="path434"
       d="m 0,0 c 0,0 -4.533,-0.314 -1.517,-1.713 0,0 2.487,-0.948 3.33,0.812 0,0 0.553,0.451 0.355,0.745 C 1.97,0.141 1.752,0.077 1.299,0.127 0.846,0.178 0,0 0,0"
       style="fill:#f4e3b7;fill-opacity:1;fill-rule:nonzero;stroke:none"
       transform="matrix(0.35277776,0,0,-0.35277776,67.262684,127.25389)"
       clip-path="url(#clipPath435)" />
    <path
       id="path436"
       d="m 0,0 c 0,0 -4.533,-0.315 -1.519,-1.712 0,0 2.489,-0.947 3.332,0.811 0,0 0.552,0.451 0.355,0.745 C 1.969,0.141 1.75,0.076 1.299,0.127 0.847,0.18 0,0 0,0"
       style="fill:#f4e3b7;fill-opacity:1;fill-rule:nonzero;stroke:none"
       transform="matrix(0.35277776,0,0,-0.35277776,65.185033,126.99986)"
       clip-path="url(#clipPath437)" />
    <path
       id="path438"
       d="m 0,0 c 0,0 -4.533,-0.314 -1.517,-1.712 0,0 2.487,-0.947 3.33,0.811 0,0 0.552,0.451 0.355,0.747 C 1.969,0.141 1.75,0.076 1.299,0.129 0.846,0.18 0,0 0,0"
       style="fill:#f4e3b7;fill-opacity:1;fill-rule:nonzero;stroke:none"
       transform="matrix(0.35277776,0,0,-0.35277776,61.334636,125.89728)"
       clip-path="url(#clipPath439)" />
    <path
       id="path440"
       d="m 0,0 c 0,0 -4.278,-0.628 0.218,-1.259 0,0 3.499,-0.383 2.545,0.841 0,0 0.1,0.345 -0.406,0.519 C 1.854,0.276 1.697,0.213 1.186,0.205 0.675,0.196 0,0 0,0"
       style="fill:#f4e3b7;fill-opacity:1;fill-rule:nonzero;stroke:none"
       transform="matrix(0.35277776,0,0,-0.35277776,63.600321,126.281)"
       clip-path="url(#clipPath441)" />
    <path
       id="path442"
       d="m 0,0 c 0,0 -2.406,-2.453 1.467,-0.795 0,0 2.904,1.364 0.945,1.792 0,0 -0.288,0.292 -0.831,0.181 C 1.04,1.067 0.992,0.948 0.636,0.703 0.278,0.457 0,0 0,0"
       style="fill:#f4e3b7;fill-opacity:1;fill-rule:nonzero;stroke:none"
       transform="matrix(0.35277776,0,0,-0.35277776,57.979513,127.15917)"
       clip-path="url(#clipPath443)" />
    <path
       id="path444"
       d="m 0,0 c -0.369,-1.543 -18.362,-3.559 -41.071,-3.559 -22.709,0 -41.169,1.987 -41.169,3.559 0,0.675 -2.341,8.653 1.06,8.869 7.536,0.652 27.084,-0.645 40.06,-0.645 13.395,0 32.728,1.323 40.236,0.639 C 2.856,8.291 0.152,3.166 0,2.531"
       style="fill:#898a25;fill-opacity:1;fill-rule:nonzero;stroke:none"
       transform="matrix(0.35277776,0,0,-0.35277776,85.6621,124.77877)"
       clip-path="url(#clipPath445)" />
    <path
       id="path446"
       d="m 0,0 c 0,-2.54 -18.677,-4.598 -41.718,-4.598 -23.038,0 -41.716,2.058 -41.716,4.598 0,2.538 18.678,4.595 41.716,4.595 C -18.677,4.595 0,2.538 0,0"
       style="fill:#eadeb4;fill-opacity:1;fill-rule:nonzero;stroke:none"
       transform="matrix(0.35277776,0,0,-0.35277776,85.890038,122.08898)"
       clip-path="url(#clipPath447)" />
    <path
       id="path448"
       d="m 0,0 c -23.492,0 -41.893,2.071 -41.893,4.714 0,2.644 18.401,4.715 41.893,4.715 23.49,0 41.892,-2.071 41.892,-4.715 C 41.892,2.071 23.49,0 0,0 m 0,9.195 c -22.521,0 -41.546,-2.052 -41.546,-4.481 0,-2.428 19.025,-4.479 41.546,-4.479 22.518,0 41.543,2.051 41.543,4.479 0,2.429 -19.025,4.481 -41.543,4.481"
       style="fill:#748f2b;fill-opacity:1;fill-rule:nonzero;stroke:none"
       transform="matrix(0.35277776,0,0,-0.35277776,71.173569,123.75251)"
       clip-path="url(#clipPath449)" />
    <path
       id="path450"
       d="M 0,0 C 0,0 9.129,0.695 13.209,0.223 15.724,-0.068 17.859,0.137 17.387,-0.94 16.924,-1.994 9.344,-2.859 7.597,-3.108 6.402,-3.278 -3.638,-2.224 -3.628,-1.507 -3.611,-0.259 0,0 0,0"
       style="fill:#e9d795;fill-opacity:1;fill-rule:nonzero;stroke:none"
       transform="matrix(0.35277776,0,0,-0.35277776,68.734574,120.90884)"
       clip-path="url(#clipPath451)" />
    <path
       id="path452"
       d="M 0,0 C 1.081,0.464 2.681,1.281 3.964,1.257 6.732,1.208 7.553,1.37 8.556,-1.211 9.166,-2.782 6.813,-3.354 4.459,-3.99 2.332,-4.565 -4.113,-3.292 -6.606,-3.356 -8.311,-3.398 -8.733,-2.02 -7.372,-1.605 -3.236,-0.349 -2.329,-0.998 0,0"
       style="fill:#e9d795;fill-opacity:1;fill-rule:nonzero;stroke:none"
       transform="matrix(0.35277776,0,0,-0.35277776,74.368228,121.69849)"
       clip-path="url(#clipPath453)" />
    <path
       id="path454"
       d="m 0,0 c -1.154,0.377 -7.177,1.906 -9.683,-0.166 -1.923,-1.589 1.851,-2.277 3.896,-3.042 3.013,-1.127 9.878,0.443 12.366,0.574 1.702,0.089 2.75,1.277 1.327,1.583 C 3.579,-0.121 2.485,-0.812 0,0"
       style="fill:#e9d795;fill-opacity:1;fill-rule:nonzero;stroke:none"
       transform="matrix(0.35277776,0,0,-0.35277776,68.261362,121.95306)"
       clip-path="url(#clipPath455)" />
    <path
       id="path456"
       d="m 0,0 c 0,0 2.362,-2.065 3.363,1.31 0,0 0.498,2.527 -2.666,0.792 0,0 -0.947,-0.26 -1.339,-0.735 C -1.034,0.891 -0.843,0.852 -0.739,0.545 -0.635,0.235 0,0 0,0"
       style="fill:#f4e3b7;fill-opacity:1;fill-rule:nonzero;stroke:none"
       transform="matrix(0.35277776,0,0,-0.35277776,67.069138,122.96651)"
       clip-path="url(#clipPath457)" />
    <path
       id="path458"
       d="m 0,0 c 0,0 -1.891,1.714 -4.057,-0.251 0,0 -1.348,-1.513 2.629,-0.96 0,0 1.109,0.003 1.684,0.235 0.576,0.234 0.38,0.291 0.367,0.504 C 0.611,-0.259 0,0 0,0"
       style="fill:#f4e3b7;fill-opacity:1;fill-rule:nonzero;stroke:none"
       transform="matrix(0.35277776,0,0,-0.35277776,69.841488,122.48565)"
       clip-path="url(#clipPath459)" />
    <path
       id="path460"
       d="m 0,0 c 0,0 1.006,-2.386 4.567,-0.847 0,0 2.395,1.275 -2.267,1.769 0,0 -1.21,0.305 -1.981,0.21 C -0.45,1.037 -0.27,0.92 -0.387,0.685 -0.506,0.45 0,0 0,0"
       style="fill:#f4e3b7;fill-opacity:1;fill-rule:nonzero;stroke:none"
       transform="matrix(0.35277776,0,0,-0.35277776,75.331126,121.8166)"
       clip-path="url(#clipPath461)" />
    <path
       id="path462"
       d="m 0,0 c 0,0 3.869,0.169 1.372,1.423 0,0 -2.067,0.861 -2.868,-0.618 0,0 -0.491,-0.371 -0.338,-0.625 0.153,-0.257 0.342,-0.206 0.724,-0.261 C -0.728,-0.134 0,0 0,0"
       style="fill:#f4e3b7;fill-opacity:1;fill-rule:nonzero;stroke:none"
       transform="matrix(0.35277776,0,0,-0.35277776,70.579744,121.4586)"
       clip-path="url(#clipPath463)" />
    <path
       id="path464"
       d="m 0,0 c 0,0 -4.202,1.186 -2.558,-1.015 0,0 1.503,-1.631 3.502,-0.36 0,0 0.808,0.218 0.846,0.539 0.038,0.324 -0.2,0.337 -0.559,0.529 C 0.869,-0.117 0,0 0,0"
       style="fill:#f4e3b7;fill-opacity:1;fill-rule:nonzero;stroke:none"
       transform="matrix(0.35277776,0,0,-0.35277776,73.303439,120.90824)"
       clip-path="url(#clipPath465)" />
    <path
       id="path466"
       d="m 0,0 c 0,0 -4.533,-0.314 -1.517,-1.713 0,0 2.487,-0.948 3.33,0.812 0,0 0.553,0.451 0.355,0.745 C 1.97,0.141 1.752,0.077 1.299,0.127 0.846,0.178 0,0 0,0"
       style="fill:#f4e3b7;fill-opacity:1;fill-rule:nonzero;stroke:none"
       transform="matrix(0.35277776,0,0,-0.35277776,74.951925,122.36326)"
       clip-path="url(#clipPath467)" />
    <path
       id="path468"
       d="m 0,0 c 0,0 -4.533,-0.315 -1.519,-1.712 0,0 2.489,-0.947 3.332,0.811 0,0 0.552,0.451 0.355,0.745 C 1.969,0.141 1.75,0.076 1.299,0.127 0.847,0.18 0,0 0,0"
       style="fill:#f4e3b7;fill-opacity:1;fill-rule:nonzero;stroke:none"
       transform="matrix(0.35277776,0,0,-0.35277776,72.874285,122.10923)"
       clip-path="url(#clipPath469)" />
    <path
       id="path470"
       d="m 0,0 c 0,0 -4.533,-0.314 -1.517,-1.712 0,0 2.487,-0.947 3.33,0.811 0,0 0.552,0.451 0.355,0.747 C 1.969,0.141 1.75,0.076 1.299,0.129 0.846,0.18 0,0 0,0"
       style="fill:#f4e3b7;fill-opacity:1;fill-rule:nonzero;stroke:none"
       transform="matrix(0.35277776,0,0,-0.35277776,69.023891,121.00666)"
       clip-path="url(#clipPath471)" />
    <path
       id="path472"
       d="m 0,0 c 0,0 -4.278,-0.628 0.218,-1.259 0,0 3.499,-0.383 2.545,0.841 0,0 0.1,0.345 -0.406,0.519 C 1.854,0.276 1.697,0.213 1.186,0.205 0.675,0.196 0,0 0,0"
       style="fill:#f4e3b7;fill-opacity:1;fill-rule:nonzero;stroke:none"
       transform="matrix(0.35277776,0,0,-0.35277776,71.289563,121.39038)"
       clip-path="url(#clipPath473)" />
    <path
       id="path474"
       d="m 0,0 c 0,0 -2.406,-2.453 1.467,-0.795 0,0 2.904,1.364 0.945,1.792 0,0 -0.288,0.292 -0.831,0.181 C 1.04,1.067 0.992,0.948 0.636,0.703 0.278,0.457 0,0 0,0"
       style="fill:#f4e3b7;fill-opacity:1;fill-rule:nonzero;stroke:none"
       transform="matrix(0.35277776,0,0,-0.35277776,65.668762,122.26854)"
       clip-path="url(#clipPath475)" />
    <path
       id="path476"
       d="m 0,0 c -0.369,-1.543 -18.362,-3.559 -41.071,-3.559 -22.709,0 -41.169,1.987 -41.169,3.559 0,0.675 -2.341,8.653 1.06,8.869 7.536,0.652 27.084,-0.645 40.06,-0.645 13.395,0 32.728,1.323 40.236,0.639 C 2.856,8.291 0.152,3.166 0,2.531"
       style="fill:#898a25;fill-opacity:1;fill-rule:nonzero;stroke:none"
       transform="matrix(0.35277776,0,0,-0.35277776,102.69328,121.29844)"
       clip-path="url(#clipPath477)" />
    <path
       id="path478"
       d="m 0,0 c 0,-2.54 -18.677,-4.598 -41.718,-4.598 -23.038,0 -41.716,2.058 -41.716,4.598 0,2.538 18.678,4.595 41.716,4.595 C -18.677,4.595 0,2.538 0,0"
       style="fill:#eadeb4;fill-opacity:1;fill-rule:nonzero;stroke:none"
       transform="matrix(0.35277776,0,0,-0.35277776,102.92121,118.60862)"
       clip-path="url(#clipPath479)" />
    <path
       id="path480"
       d="m 0,0 c -23.492,0 -41.893,2.071 -41.893,4.714 0,2.644 18.401,4.715 41.893,4.715 23.49,0 41.892,-2.071 41.892,-4.715 C 41.892,2.071 23.49,0 0,0 m 0,9.195 c -22.521,0 -41.546,-2.052 -41.546,-4.481 0,-2.428 19.025,-4.479 41.546,-4.479 22.518,0 41.543,2.051 41.543,4.479 0,2.429 -19.025,4.481 -41.543,4.481"
       style="fill:#748f2b;fill-opacity:1;fill-rule:nonzero;stroke:none"
       transform="matrix(0.35277776,0,0,-0.35277776,88.204719,120.27217)"
       clip-path="url(#clipPath481)" />
    <path
       id="path484"
       d="M 0,0 C 1.081,0.464 2.681,1.281 3.964,1.257 6.732,1.208 7.553,1.37 8.556,-1.211 9.166,-2.782 6.813,-3.354 4.459,-3.99 2.332,-4.565 -4.113,-3.292 -6.606,-3.356 -8.311,-3.398 -8.733,-2.02 -7.372,-1.605 -3.236,-0.349 -2.329,-0.998 0,0"
       style="fill:#e9d795;fill-opacity:1;fill-rule:nonzero;stroke:none"
       transform="matrix(0.35277776,0,0,-0.35277776,91.399377,118.21816)"
       clip-path="url(#clipPath485)" />
    <path
       id="path486"
       d="m 0,0 c -1.154,0.377 -7.177,1.906 -9.683,-0.166 -1.923,-1.589 1.851,-2.277 3.896,-3.042 3.013,-1.127 9.878,0.443 12.366,0.574 1.702,0.089 2.75,1.277 1.327,1.583 C 3.579,-0.121 2.485,-0.812 0,0"
       style="fill:#e9d795;fill-opacity:1;fill-rule:nonzero;stroke:none"
       transform="matrix(0.35277776,0,0,-0.35277776,85.292503,118.47269)"
       clip-path="url(#clipPath487)" />
    <path
       id="path488"
       d="m 0,0 c 0,0 2.362,-2.065 3.363,1.31 0,0 0.498,2.527 -2.666,0.792 0,0 -0.947,-0.26 -1.339,-0.735 C -1.034,0.89 -0.843,0.852 -0.739,0.545 -0.635,0.235 0,0 0,0"
       style="fill:#f4e3b7;fill-opacity:1;fill-rule:nonzero;stroke:none"
       transform="matrix(0.35277776,0,0,-0.35277776,84.100291,119.48615)"
       clip-path="url(#clipPath489)" />
    <path
       id="path490"
       d="m 0,0 c 0,0 -1.891,1.714 -4.057,-0.251 0,0 -1.348,-1.513 2.629,-0.96 0,0 1.109,0.003 1.684,0.235 0.576,0.234 0.38,0.291 0.367,0.504 C 0.611,-0.26 0,0 0,0"
       style="fill:#f4e3b7;fill-opacity:1;fill-rule:nonzero;stroke:none"
       transform="matrix(0.35277776,0,0,-0.35277776,86.872648,119.00528)"
       clip-path="url(#clipPath491)" />
    <path
       id="path492"
       d="m 0,0 c 0,0 1.006,-2.386 4.567,-0.847 0,0 2.395,1.275 -2.267,1.769 0,0 -1.21,0.305 -1.981,0.21 C -0.45,1.037 -0.27,0.92 -0.387,0.685 -0.506,0.45 0,0 0,0"
       style="fill:#f4e3b7;fill-opacity:1;fill-rule:nonzero;stroke:none"
       transform="matrix(0.35277776,0,0,-0.35277776,92.362276,118.33627)"
       clip-path="url(#clipPath493)" />
    <path
       id="path498"
       d="m 0,0 c 0,0 -4.533,-0.314 -1.517,-1.713 0,0 2.487,-0.948 3.33,0.812 0,0 0.553,0.451 0.355,0.745 C 1.97,0.141 1.752,0.077 1.299,0.127 0.846,0.178 0,0 0,0"
       style="fill:#f4e3b7;fill-opacity:1;fill-rule:nonzero;stroke:none"
       transform="matrix(0.35277776,0,0,-0.35277776,91.983075,118.88293)"
       clip-path="url(#clipPath499)" />
    <path
       id="path500"
       d="m 0,0 c 0,0 -4.533,-0.315 -1.519,-1.712 0,0 2.489,-0.947 3.332,0.811 0,0 0.552,0.451 0.355,0.745 C 1.969,0.141 1.75,0.076 1.299,0.127 0.847,0.18 0,0 0,0"
       style="fill:#f4e3b7;fill-opacity:1;fill-rule:nonzero;stroke:none"
       transform="matrix(0.35277776,0,0,-0.35277776,89.905434,118.6289)"
       clip-path="url(#clipPath501)" />
    <path
       id="path506"
       d="m 0,0 c 0,0 -2.406,-2.453 1.467,-0.795 0,0 2.904,1.364 0.945,1.792 0,0 -0.288,0.292 -0.831,0.181 C 1.04,1.067 0.992,0.948 0.636,0.703 0.278,0.457 0,0 0,0"
       style="fill:#f4e3b7;fill-opacity:1;fill-rule:nonzero;stroke:none"
       transform="matrix(0.35277776,0,0,-0.35277776,82.699904,118.78818)"
       clip-path="url(#clipPath507)" />
  </g>
</svg>
