<?xml version="1.0" encoding="UTF-8" standalone="no"?>
<!-- Created with Inkscape (http://www.inkscape.org/) -->

<svg
   width="63.10574mm"
   height="13.638816mm"
   viewBox="0 0 63.10574 13.638816"
   version="1.1"
   id="svg1"
   xmlns="http://www.w3.org/2000/svg"
   xmlns:svg="http://www.w3.org/2000/svg">
  <defs
     id="defs1">
    <clipPath
       clipPathUnits="userSpaceOnUse"
       id="clipPath77">
      <path
         d="m 105.906,691.611 h 180.246 v 47.138 H 105.906 Z"
         transform="translate(-111.0068,-731.63372)"
         id="path77" />
    </clipPath>
    <clipPath
       clipPathUnits="userSpaceOnUse"
       id="clipPath79">
      <path
         d="m 105.906,691.611 h 180.246 v 47.138 H 105.906 Z"
         transform="translate(-110.72911,-731.15092)"
         id="path79" />
    </clipPath>
  </defs>
  <g
     id="layer1"
     transform="translate(-48.947915,-66.145834)">
    <path
       id="path76"
       d="m 0,0 c 0,0 -9.658,-13.789 -0.42,-21.376 9.238,-7.587 154.044,-18.646 170.865,-8.689 6.962,4.124 2.762,18.272 2.762,18.272 z"
       style="fill:#6a4426;fill-opacity:1;fill-rule:nonzero;stroke:none"
       transform="matrix(0.35277776,0,0,-0.35277776,50.50707,67.781702)"
       clip-path="url(#clipPath77)" />
    <path
       id="path78"
       d="m 0,0 c 0.666,4.064 41.87,7.599 89.683,2.829 47.814,-4.77 84.613,-10.648 83.946,-14.713 -0.665,-4.064 -38.776,-5.988 -86.593,-1.218 C 39.225,-8.332 -0.664,-4.064 0,0"
       style="fill:#7e512e;fill-opacity:1;fill-rule:nonzero;stroke:none"
       transform="matrix(0.35277776,0,0,-0.35277776,50.409105,67.952025)"
       clip-path="url(#clipPath79)" />
  </g>
</svg>
