<svg xmlns="http://www.w3.org/2000/svg" xmlns:xlink="http://www.w3.org/1999/xlink" version="1.1" width="300pt" height="300pt" viewBox="0 0 300 300">
<defs>
<clipPath id="clip_5">
<path transform="matrix(1,0,0,-1,0,300)" d="M0 300H300V0H0Z"/>
</clipPath>
</defs>
<g clip-path="url(#clip_5)">
<path transform="matrix(1,0,0,-1,93.9781,264.2246)" d="M0 0C0 0 21.026 12.616 29.437 29.437 37.849 46.26 35.22 54.145 35.22 54.145 35.22 54.145 50.465 54.145 52.83 69.915 60.452 63.606 71.754 61.767 79.64 66.498 86.21 61.767 106.509 62.15 113.282 73.595 120.904 86.474 116.527 93.308 115.122 96.461 119.591 95.147 123.008 95.936 128.001 98.038 132.995 95.147 152.914 87.505 169.004 98.827 176.101 103.82 182.408 111.969 182.408 121.957 190.294 132.996 183.723 165.85 167.689 171.896 167.689 178.729 146.399 195.813 134.572 195.551 130.367 202.91 120.904 211.847 108.814 211.847 99.089 222.36 81.217 227.354 65.184 224.988 53.093 231.034 41.791 227.88 34.694 225.133 22.866 228.143 13.93 225.777 7.885 223.412-7.886 221.046-16.821 215.789-20.502 208.692-39.426 201.07-53.093 186.877-53.619 170.318-64.133 160.856-67.286 150.605-65.184 142.983-73.857 134.835-77.274 121.168-68.863 114.177-72.018 98.301-61.504 88.313-47.837 87.788-75.435 68.863-24.182 33.118 7.097 35.221 7.622 28.649 6.308 10.514 0 0" fill="#231f20"/>
</g>
</svg>
