<svg xmlns="http://www.w3.org/2000/svg" xmlns:xlink="http://www.w3.org/1999/xlink" version="1.1" width="300pt" height="300pt" viewBox="0 0 300 300">
<defs>
<clipPath id="clip_13">
<path transform="matrix(1,0,0,-1,0,300)" d="M0 300H300V0H0Z"/>
</clipPath>
</defs>
<g clip-path="url(#clip_13)">
<path transform="matrix(1,0,0,-1,97.856,154.6245)" d="M0 0 4.159-30.503C4.301-31.539 4.024-32.589 3.392-33.421L-11.286-52.732C-20.745-50.212-31.211-53.438-37.501-61.714-45.604-72.377-43.78-87.473-33.547-95.924-34.883-90.599-34.614-84.992-32.811-79.846-33.667-75.642-32.79-71.106-29.99-67.422-29.854-67.243-29.707-67.077-29.564-66.906-29.219-67.005-28.873-67.113-28.529-67.238-27.456-67.628-26.458-68.132-25.531-68.72-25.07-68.29-24.599-67.869-24.103-67.467-22.549-66.205-20.874-65.135-19.118-64.249L-19.114-64.251C-18.441-63.911-17.76-63.591-17.063-63.308L-16.372-61.404C-15.272-61.5-14.177-61.707-13.106-62.041-9.414-61.146-5.546-61.007-1.745-61.662-1.396-61.723-1.046-61.786-.697-61.858-.215-61.961 .268-62.068 .746-62.198 1.399-62.374 2.038-62.585 2.672-62.807 3.216-63 3.753-63.206 4.283-63.428L18.412-44.837C19.045-44.005 19.982-43.458 21.019-43.316L23.29-43.007 25.307-23.562-.182-59.14C-.951-58.374-1.764-57.638-2.652-56.963-3.539-56.288-4.459-55.69-5.401-55.152L63.551 30.438C63.696 30.62 63.971 30.411 63.836 30.222L34.107-11.276 75.042 9.084 114.564 95.4C114.901 96.136 114.43 96.836 113.799 97.006 113.468 97.096 113.094 97.039 112.769 96.765L.97 2.52C.236 1.9-.129 .95 0 0" fill="#030404"/>
<path transform="matrix(1,0,0,-1,85.3541,203.9995)" d="M0 0 .96 1.263 3.711 8.833C4.068 9.816 4.801 10.617 5.749 11.06L9.867 12.982 13.505 17.769C13.657 17.97 13.723 18.218 13.688 18.467L9.631 48.23-6.209 .481C-4.154 .553-2.073 .396 0 0" fill="#030404"/>
<path transform="matrix(1,0,0,-1,71.1998,185.70749)" d="M0 0C.442-.947 .49-2.032 .133-3.015L-7.086-22.88C-4.57-21.103-1.789-19.777 1.136-18.923L38.629 75.822C38.714 76.038 39.039 75.921 38.966 75.7L25.788 35.976 56.309 61.705 68.064 152.997C68.222 154.221 66.609 154.808 65.944 153.768L-12.846 30.588C-13.362 29.779-13.43 28.763-13.024 27.894Z" fill="#030404"/>
<path transform="matrix(1,0,0,-1,195.856,159.0707)" d="M0 0-83.33-71.668C-83.897-70.743-84.525-69.843-85.228-68.978-85.93-68.113-86.683-67.314-87.471-66.569L-.227 .278C-.042 .42 .176 .152 0 0M-94.803-96.639C-100.37-101.159-108.124-101.146-113.648-97.095-106.867-96.532-100.343-93.21-95.9-87.365-93.463-84.158-91.925-80.549-91.242-76.841-87.43-83.31-88.797-91.761-94.803-96.639M-116.563-74.987C-116.181-77.459-116.378-80.054-117.293-82.572-117.89-84.214-118.741-85.688-119.781-86.974-120.415-82.771-119.311-78.399-116.563-74.987M-100.491-69.772C-99.811-73.822-100.729-78.129-103.411-81.657-104.816-83.506-106.564-84.933-108.49-85.947-108.471-85.896-108.446-85.847-108.427-85.794-106.462-80.386-106.5-74.743-108.146-69.662-105.614-69.055-102.981-69.099-100.491-69.772M64.097 53.168C63.848 53.235 63.568 53.217 63.287 53.077L-67.636-12.042C-68.494-12.469-69.075-13.307-69.174-14.261L-72.35-44.881C-72.458-45.921-72.975-46.876-73.786-47.535L-92.616-62.825C-101.21-58.139-112.142-58.797-120.211-65.35-130.874-74.008-132.498-89.671-123.84-100.333-115.182-110.995-99.519-112.62-88.856-103.962-80.786-97.408-77.898-86.845-80.723-77.472L-61.893-62.181C-61.081-61.521-60.041-61.212-59-61.319L-28.38-64.495C-27.426-64.595-26.487-64.198-25.894-63.445L64.709 51.326C65.279 52.048 64.823 52.972 64.097 53.168" fill="#030404"/>
<path transform="matrix(1,0,0,-1,63.2916,253.5746)" d="M0 0C-.875 .664-1.697 1.378-2.478 2.128-3.157 2.274-3.837 2.451-4.509 2.696-12.521 5.607-16.657 14.463-13.745 22.477-12.999 24.53-11.857 26.325-10.443 27.816-9.615 31.849-7.89 35.678-5.324 39.052-4.578 40.034-3.767 40.944-2.917 41.805-11.639 40.492-19.387 34.57-22.611 25.698-27.303 12.789-20.641-1.479-7.731-6.17-3.186-7.822 1.527-8.062 5.933-7.119 4.646-5.444 3.57-3.668 2.72-1.82 1.784-1.268 .875-.665 0 0" fill="#030404"/>
</g>
</svg>
