<svg xmlns="http://www.w3.org/2000/svg" xmlns:xlink="http://www.w3.org/1999/xlink" version="1.1" width="300pt" height="300pt" viewBox="0 0 300 300">
<defs>
<clipPath id="clip_15">
<path transform="matrix(1,0,0,-1,0,300)" d="M0 300H300V0H0Z"/>
</clipPath>
</defs>
<g clip-path="url(#clip_15)">
<path transform="matrix(1,0,0,-1,156.333,289.5287)" d="M0 0H-12.666V144C-12.666 146.394-10.727 148.334-8.333 148.334H-4.333C-1.939 148.334 0 146.394 0 144Z" fill="#231f20"/>
<path transform="matrix(1,0,0,-1,150.5508,90.9438)" d="M0 0 6.956-45.279C6.998-45.551 7.231-45.752 7.507-45.752H18.671C19.012-45.752 19.272-45.447 19.221-45.11L0 80C-.097 80.63-1.004 80.63-1.102 80L-20.322-45.11C-20.374-45.447-20.113-45.752-19.772-45.752H-8.607C-8.333-45.752-8.1-45.551-8.058-45.279L-1.102 0C-1.004 .63-.097 .63 0 0" fill="#231f20"/>
<path transform="matrix(1,0,0,-1,105.667,283.5287)" d="M0 0H-12.667V119.5C-12.667 121.894-10.727 123.834-8.334 123.834H-4.334C-1.94 123.834 0 121.894 0 119.5Z" fill="#231f20"/>
<path transform="matrix(1,0,0,-1,99.8838,109.4438)" d="M0 0 6.956-45.279C6.998-45.551 7.231-45.752 7.507-45.752H18.671C19.012-45.752 19.272-45.447 19.221-45.11L0 80C-.097 80.63-1.004 80.63-1.101 80L-20.322-45.11C-20.374-45.447-20.113-45.752-19.771-45.752H-8.607C-8.333-45.752-8.099-45.551-8.058-45.279L-1.101 0C-1.004 .63-.097 .63 0 0" fill="#231f20"/>
<path transform="matrix(1,0,0,-1,207,283.5287)" d="M0 0H-12.667V119.5C-12.667 121.894-10.727 123.834-8.333 123.834H-4.333C-1.94 123.834 0 121.894 0 119.5Z" fill="#231f20"/>
<path transform="matrix(1,0,0,-1,201.2168,109.4438)" d="M0 0 6.957-45.279C6.998-45.551 7.232-45.752 7.507-45.752H18.671C19.013-45.752 19.273-45.447 19.222-45.11L0 80C-.097 80.63-1.004 80.63-1.101 80L-20.321-45.11C-20.373-45.447-20.112-45.752-19.771-45.752H-8.607C-8.332-45.752-8.099-45.551-8.057-45.279L-1.101 0C-1.004 .63-.097 .63 0 0" fill="#231f20"/>
</g>
</svg>
