<svg xmlns="http://www.w3.org/2000/svg" xmlns:xlink="http://www.w3.org/1999/xlink" version="1.1" width="300pt" height="300pt" viewBox="0 0 300 300">
<defs>
<clipPath id="clip_20">
<path transform="matrix(1,0,0,-1,0,300)" d="M0 300H300V0H0Z"/>
</clipPath>
</defs>
<g clip-path="url(#clip_20)">
<path transform="matrix(1,0,0,-1,281.3329,150.0003)" d="M0 0C0-72.533-58.8-131.333-131.333-131.333-203.866-131.333-262.666-72.533-262.666 0-262.666 72.533-203.866 131.334-131.333 131.334-58.8 131.334 0 72.533 0 0" fill="#6178a2"/>
<path transform="matrix(1,0,0,-1,104.452,242.8674)" d="M0 0C0 0 17.096 10.257 23.935 23.934 30.772 37.609 28.636 44.021 28.636 44.021 28.636 44.021 41.029 44.021 42.953 56.842 49.15 51.714 58.339 50.218 64.75 54.064 70.092 50.218 86.596 50.529 92.103 59.834 98.3 70.305 94.74 75.861 93.599 78.426 97.231 77.356 100.009 77.998 104.069 79.708 108.13 77.356 124.324 71.144 137.405 80.349 143.176 84.409 148.304 91.033 148.304 99.153 154.715 108.129 149.372 134.841 136.337 139.756 136.337 145.312 119.028 159.202 109.412 158.988 105.992 164.972 98.3 172.237 88.47 172.237 80.563 180.785 66.032 184.845 52.996 182.922 43.167 187.837 33.978 185.272 28.208 183.039 18.592 185.486 11.326 183.562 6.411 181.64-6.41 179.717-13.676 175.442-16.668 169.673-32.054 163.476-43.166 151.937-43.593 138.474-52.141 130.78-54.705 122.446-52.996 116.249-60.048 109.625-62.826 98.513-55.987 92.828-58.552 79.921-50.004 71.801-38.892 71.373-61.33 55.987-19.659 26.925 5.771 28.635 6.197 23.292 5.129 8.548 0 0" fill="#ffffff"/>
</g>
</svg>
