<svg xmlns="http://www.w3.org/2000/svg" xmlns:xlink="http://www.w3.org/1999/xlink" version="1.1" width="300pt" height="300pt" viewBox="0 0 300 300">
<defs>
<clipPath id="clip_4">
<path transform="matrix(1,0,0,-1,0,300)" d="M0 300H300V0H0Z"/>
</clipPath>
</defs>
<g clip-path="url(#clip_4)">
<path transform="matrix(1,0,0,-1,152.0292,256.9463)" d="M0 0 56.118 97.2C57.134 98.96 55.864 101.159 53.832 101.159H-58.404C-60.437 101.159-61.706 98.96-60.69 97.2L-4.571 0C-3.556-1.76-1.017-1.76 0 0L56.118 97.2C57.134 98.96 55.864 101.159 53.832 101.159H-58.404C-60.437 101.159-61.706 98.96-60.69 97.2L-4.571 0C-3.556-1.76-1.017-1.76 0 0" fill="#030404"/>
<path transform="matrix(1,0,0,-1,148.2176,74.2271)" d="M0 0-37.459-64.88C-38.137-66.055-37.289-67.523-35.934-67.523H38.984C40.341-67.523 41.188-66.055 40.51-64.88L3.051 0C2.373 1.174 .678 1.174 0 0L-37.459-64.88C-38.137-66.055-37.289-67.523-35.934-67.523H38.984C40.341-67.523 41.188-66.055 40.51-64.88L3.051 0C2.373 1.174 .678 1.174 0 0" fill="#030404"/>
<path transform="matrix(1,0,0,-1,215.2137,147.8931)" d="M0 0 56.118 97.2C57.134 98.959 55.864 101.159 53.832 101.159H-58.404C-60.437 101.159-61.706 98.959-60.69 97.2L-4.571 0C-3.556-1.759-1.017-1.759 0 0L56.118 97.2C57.134 98.959 55.864 101.159 53.832 101.159H-58.404C-60.437 101.159-61.706 98.959-60.69 97.2L-4.571 0C-3.556-1.759-1.017-1.759 0 0" fill="#030404"/>
<path transform="matrix(1,0,0,-1,89.3583,147.8931)" d="M0 0 56.118 97.2C57.134 98.959 55.864 101.159 53.832 101.159H-58.404C-60.437 101.159-61.706 98.959-60.69 97.2L-4.571 0C-3.556-1.759-1.017-1.759 0 0L56.118 97.2C57.134 98.959 55.864 101.159 53.832 101.159H-58.404C-60.437 101.159-61.706 98.959-60.69 97.2L-4.571 0C-3.556-1.759-1.017-1.759 0 0" fill="#030404"/>
</g>
</svg>
