<svg xmlns="http://www.w3.org/2000/svg" xmlns:xlink="http://www.w3.org/1999/xlink" version="1.1" width="300pt" height="300pt" viewBox="0 0 300 300">
<defs>
<clipPath id="clip_18">
<path transform="matrix(1,0,0,-1,0,300)" d="M0 300H300V0H0Z"/>
</clipPath>
</defs>
<g clip-path="url(#clip_18)">
<path transform="matrix(1,0,0,-1,281.3334,150.0003)" d="M0 0C0-72.533-58.8-131.333-131.333-131.333-203.867-131.333-262.667-72.533-262.667 0-262.667 72.533-203.867 131.334-131.333 131.334-58.8 131.334 0 72.533 0 0" fill="#37bcea"/>
<path transform="matrix(1,0,0,-1,166.3823,207.8674)" d="M0 0H-.14-16.312-16.452-32.624-32.765C-37.803 0-42.729-1.919-46.921-5.516L-54.915-12.374V-33.256C-54.915-33.256-37.638-40.216-16.452-40.216-16.429-40.216-16.405-40.215-16.382-40.215-16.358-40.215-16.336-40.216-16.312-40.216 4.873-40.216 22.15-33.256 22.15-33.256V-12.374L14.156-5.516C9.964-1.919 5.038 0 0 0" fill="#ffffff"/>
<path transform="matrix(1,0,0,-1,235.8705,157.887)" d="M0 0C0 0 7.212 47.949 .601 57.23 1.834 63.973 1.975 75.172-.686 80.911-4.471 83.012-18.045 76.292-25.073 72.811-28.264 79.372-33.724 88.611-38.903 93.23-45.763 93.091-59.202 85.671-66.333 81.841-71.337 86.759-79.396 99.725-85.801 102.409V102.471C-85.823 102.461-85.848 102.449-85.87 102.439-85.894 102.449-85.917 102.461-85.94 102.471V102.409C-92.346 99.725-100.438 86.719-105.408 81.841-112.539 85.671-125.979 93.091-132.838 93.23-138.018 88.611-143.478 79.372-146.668 72.811-153.696 76.292-167.271 83.012-171.056 80.911-173.716 75.172-173.575 63.973-172.342 57.23-178.953 47.949-171.741 0-171.741 0L-180.155-9.28-169.54-28.403C-167.396-32.268-141.384-45.035-129.784-50.585-127.481-51.688-124.903-49.711-125.364-47.199L-126.607-40.419C-127.443-35.863-126.87-31.162-124.966-26.94L-115.737-6.48C-114.557-2.344-116.633 2.144-120.022 2.777L-146.5 7.734V22.275C-146.5 25.645-143.328 28.113-140.062 27.286L-102.569 17.788C-99.49 17.788-97.313 13.912-98.277 10.149L-104.063-20C-105.429-25.321-102.349-30.804-97.994-30.804H-73.747C-69.393-30.804-66.313-25.321-67.678-20L-73.463 10.149C-74.429 13.912-72.251 17.788-69.172 17.788L-31.68 27.286C-28.413 28.113-25.241 25.645-25.241 22.275V7.734L-51.719 2.777C-55.108 2.144-57.185-2.344-56.004-6.48L-46.765-26.918C-44.85-31.153-44.276-35.873-45.121-40.443L-46.367-47.191C-46.832-49.704-44.253-51.685-41.947-50.581-30.345-45.028-4.345-32.267-2.201-28.403L8.414-9.28Z" fill="#ffffff"/>
</g>
</svg>
