<svg xmlns="http://www.w3.org/2000/svg" xmlns:xlink="http://www.w3.org/1999/xlink" version="1.1" width="300pt" height="300pt" viewBox="0 0 300 300">
<defs>
<clipPath id="clip_11">
<path transform="matrix(1,0,0,-1,0,300)" d="M0 300H300V0H0Z"/>
</clipPath>
</defs>
<g clip-path="url(#clip_11)">
<path transform="matrix(1,0,0,-1,225.9337,172.6987)" d="M0 0C-12.516-41.87-56.762-65.751-98.632-53.235-140.502-40.719-164.384 3.527-151.867 45.397-139.352 87.267-95.105 111.148-53.235 98.633-11.365 86.116 12.516 41.87 0 0M46.438 9.634 18.516 22.669C18.52 29.19 17.849 35.633 16.541 41.903L41.236 60.337C43.137 61.755 43.489 64.827 42.058 67.48L26.256 96.757C24.824 99.409 22.062 100.801 19.834 99.99L-9.129 89.463C-13.652 93.998-18.67 98.094-24.124 101.669L-19.696 132.165C-19.355 134.511-21.278 136.934-24.167 137.797L-56.041 147.324C-58.93 148.188-61.866 147.219-62.869 145.07L-75.904 117.147C-82.426 117.152-88.868 116.481-95.139 115.173L-113.572 139.869C-114.99 141.769-118.062 142.122-120.716 140.689L-149.991 124.889C-152.645 123.457-154.035 120.694-153.226 118.467L-142.698 89.504C-147.232 84.979-151.329 79.963-154.904 74.509L-185.4 78.937C-187.746 79.276-190.168 77.354-191.031 74.466L-200.56 42.591C-201.423 39.702-200.454 36.766-198.306 35.763L-170.383 22.729C-170.388 16.207-169.717 9.765-168.408 3.494L-193.104-14.939C-195.004-16.358-195.356-19.43-193.925-22.083L-178.124-51.359C-176.691-54.013-173.93-55.403-171.701-54.593L-142.739-44.065C-138.215-48.6-133.196-52.694-127.743-56.27L-132.171-86.768C-132.512-89.113-130.589-91.536-127.7-92.399L-95.826-101.928C-92.938-102.791-90.001-101.821-88.998-99.673L-75.962-71.748C-69.441-71.752-62.999-71.084-56.729-69.776L-38.295-94.472C-36.877-96.371-33.805-96.725-31.152-95.293L-1.876-79.491C.777-78.06 2.168-75.297 1.358-73.069L-9.17-44.106C-4.635-39.583-.538-34.565 3.037-29.111L33.532-33.539C35.879-33.879 38.301-31.957 39.164-29.068L48.692 2.807C49.556 5.695 48.586 8.632 46.438 9.634" fill="#231f20"/>
<path transform="matrix(1,0,0,-1,192.8888,162.8207)" d="M0 0C-7.081-23.687-32.022-37.148-55.709-30.068-79.396-22.987-92.858 1.954-85.777 25.642-78.697 49.328-53.755 62.79-30.068 55.709-6.382 48.629 7.08 23.687 0 0M-23.737 76.89C-59.064 87.449-96.397 67.3-106.957 31.973-117.518-3.355-97.368-40.688-62.04-51.248-26.713-61.809 10.619-41.658 21.18-6.331 31.74 28.997 11.591 66.329-23.737 76.89" fill="#231f20"/>
</g>
</svg>
