<svg xmlns="http://www.w3.org/2000/svg" xmlns:xlink="http://www.w3.org/1999/xlink" version="1.1" width="300pt" height="300pt" viewBox="0 0 300 300">
<defs>
<clipPath id="clip_9">
<path transform="matrix(1,0,0,-1,0,300)" d="M0 300H300V0H0Z"/>
</clipPath>
</defs>
<g clip-path="url(#clip_9)">
<path transform="matrix(1,0,0,-1,165.112,224.686)" d="M0 0C25.972 10.652 44.328 36.183 44.328 65.947 44.328 105.245 12.354 137.218-26.943 137.218-49.104 137.218-68.931 127.046-82.013 111.131-69.067 134.798-43.937 150.89-15.112 150.89 26.908 150.89 61.093 116.705 61.093 74.687 61.093 37.842 34.804 7.031 0 0M-15.112 106.126C-43.835 106.126-67.204 82.758-67.204 54.032-67.204 33.225-54.911 15.28-37.231 6.942-65.394 11.844-86.893 36.404-86.893 65.947-86.893 99.003-59.999 125.896-26.943 125.896 2.722 125.896 27.358 104.214 32.113 75.879 23.832 93.707 5.805 106.126-15.112 106.126M-48.328 41.959C-48.328 53.752-38.735 63.346-26.943 63.346-15.152 63.346-5.56 53.752-5.56 41.959-5.56 30.17-15.152 20.577-26.943 20.577-38.735 20.577-48.328 30.17-48.328 41.959M-10.92 13.48C-.978 19.098 5.762 29.749 5.762 41.959 5.762 59.995-8.909 74.667-26.943 74.667-39.351 74.667-50.165 67.722-55.706 57.516-53.93 78.37-36.417 94.805-15.112 94.805 7.368 94.805 25.658 76.515 25.658 54.032 25.658 32.968 9.599 15.586-10.92 13.48M-15.112 162.211C-63.373 162.211-102.637 122.948-102.637 74.687-102.637 26.426-63.373-12.838-15.112-12.838 33.151-12.838 72.414 26.426 72.414 74.687 72.414 122.948 33.151 162.211-15.112 162.211" fill="#030404"/>
<path transform="matrix(1,0,0,-1,149.9997,247.92331)" d="M0 0C-53.995 0-97.923 43.929-97.923 97.924-97.923 151.92-53.995 195.847 0 195.847 53.994 195.847 97.923 151.92 97.923 97.924 97.923 43.929 53.994 0 0 0M0 207.168C-60.236 207.168-109.244 158.161-109.244 97.924-109.244 37.686-60.236-11.321 0-11.321 60.237-11.321 109.244 37.686 109.244 97.924 109.244 158.161 60.237 207.168 0 207.168" fill="#030404"/>
</g>
</svg>
