<svg xmlns="http://www.w3.org/2000/svg" xmlns:xlink="http://www.w3.org/1999/xlink" version="1.1" width="300pt" height="300pt" viewBox="0 0 300 300">
<defs>
<clipPath id="clip_1">
<path transform="matrix(1,0,0,-1,0,300)" d="M0 300H300V0H0Z"/>
</clipPath>
</defs>
<g clip-path="url(#clip_1)">
<path transform="matrix(1,0,0,-1,83.5769,127.829608)" d="M0 0-24.281-81.824C-24.459-82.424-23.945-83.003-23.327-82.898L.408-78.818C.856-78.741 1.285-79.032 1.379-79.476L11.557-127.647C11.76-128.608 13.163-128.508 13.228-127.528L17.69-59.721C17.726-59.181 17.252-58.747 16.717-58.831L-4.771-62.181C-5.325-62.268-5.808-61.801-5.74-61.245L1.648-.342C1.773 .687 .294 .994 0 0" fill="#030404"/>
<path transform="matrix(1,0,0,-1,206.8864,36.040987)" d="M0 0-109.868-112.878C-110.395-113.419-110.012-114.327-109.257-114.327H-47.211C-46.579-114.327-46.166-114.99-46.445-115.558L-101.33-226.945C-101.763-227.825-100.614-228.621-99.942-227.907L28.612-91.201C29.105-90.676 28.767-89.813 28.048-89.765L-39.435-85.241C-40.043-85.2-40.414-84.554-40.141-84.008L1.375-.977C1.811-.105 .68 .698 0 0" fill="#030404"/>
<path transform="matrix(1,0,0,-1,239.5114,177.9482)" d="M0 0-65.83-31.259C-66.407-31.532-66.49-32.32-65.982-32.709L-51.695-43.63C-51.227-43.989-51.254-44.704-51.749-45.025L-112.253-84.306C-113.132-84.877-112.408-86.224-111.447-85.806L-18.576-45.409C-17.954-45.14-17.88-44.287-18.446-43.913L-34.813-33.108C-35.289-32.795-35.33-32.112-34.895-31.744L.919-1.424C1.682-.777 .903 .429 0 0" fill="#030404"/>
</g>
</svg>
