<svg xmlns="http://www.w3.org/2000/svg" xmlns:xlink="http://www.w3.org/1999/xlink" version="1.1" width="300pt" height="300pt" viewBox="0 0 300 300">
<defs>
<clipPath id="clip_10">
<path transform="matrix(1,0,0,-1,0,300)" d="M0 300H300V0H0Z"/>
</clipPath>
</defs>
<g clip-path="url(#clip_10)">
<path transform="matrix(1,0,0,-1,150.0004,213.4135)" d="M0 0C-35.022 0-63.414 28.392-63.414 63.413-63.414 98.436-35.022 126.827 0 126.827 35.022 126.827 63.413 98.436 63.413 63.413 63.413 28.392 35.022 0 0 0M77.21 42.725 128.266 63.413 77.21 84.102 111.081 127.547 56.521 119.936 64.133 174.495 20.688 140.624 0 191.68-20.688 140.624-64.134 174.495-56.522 119.936-111.082 127.547-77.211 84.102-128.267 63.413-77.211 42.725-111.082-.72-56.522 6.892-64.134-47.668-20.688-13.797 0-64.853 20.688-13.797 64.133-47.668 56.521 6.892 111.081-.72Z" fill="#030404"/>
<path transform="matrix(1,0,0,-1,189.8598,150.0004)" d="M0 0C0-22.014-17.846-39.859-39.859-39.859-61.874-39.859-79.72-22.014-79.72 0-79.72 22.015-61.874 39.86-39.859 39.86-17.846 39.86 0 22.015 0 0" fill="#030404"/>
</g>
</svg>
