<svg xmlns="http://www.w3.org/2000/svg" xmlns:xlink="http://www.w3.org/1999/xlink" version="1.1" width="300pt" height="300pt" viewBox="0 0 300 300">
<defs>
<clipPath id="clip_19">
<path transform="matrix(1,0,0,-1,0,300)" d="M0 300H300V0H0Z"/>
</clipPath>
</defs>
<g clip-path="url(#clip_19)">
<path transform="matrix(1,0,0,-1,281.3332,150.0003)" d="M0 0C0-72.533-58.8-131.333-131.333-131.333-203.866-131.333-262.666-72.533-262.666 0-262.666 72.533-203.866 131.334-131.333 131.334-58.8 131.334 0 72.533 0 0" fill="#e97f70"/>
<path transform="matrix(1,0,0,-1,235.0021,192.26779)" d="M0 0-14.239 115.058C-14.337 115.845-14.715 116.55-15.33 117.051-19.175 120.181-35.366 130.828-75.703 128.692-109.689 126.893-125.075 113.863-129.024 109.873-129.713 109.177-130.001 108.201-129.84 107.235L-114.494 15.383-114.472 15.357C-123.235 18.301-134.664 17.577-145.634 12.534-164.151 4.021-174.286-13.49-168.269-26.578-162.252-39.667-142.362-43.375-123.844-34.861-107.944-27.552-98.259-13.614-99.637-1.532L-99.474-1.719-112.606 71.811C-112.606 71.811-101.785 83.188-69.044 85.962-36.302 88.736-24.094 83.188-24.094 83.188L-15.682 17.321-15.664 17.302C-24.336 19.987-35.469 19.169-46.16 14.254-64.679 5.74-74.813-11.771-68.796-24.859-62.778-37.947-42.889-41.655-24.371-33.143-8.474-25.834 1.211-11.899-.163 .18Z" fill="#ffffff"/>
</g>
</svg>
