<svg xmlns="http://www.w3.org/2000/svg" xmlns:xlink="http://www.w3.org/1999/xlink" version="1.1" width="300pt" height="300pt" viewBox="0 0 300 300">
<defs>
<clipPath id="clip_16">
<path transform="matrix(1,0,0,-1,0,300)" d="M0 300H300V0H0Z"/>
</clipPath>
<clipPath id="clip_17">
<path transform="matrix(1,0,0,-1,0,300)" d="M37.146 37H262.854V236H37.146Z"/>
</clipPath>
</defs>
<g clip-path="url(#clip_16)">
<path transform="matrix(1,0,0,-1,281.3337,150.0003)" d="M0 0C0-72.533-58.801-131.333-131.334-131.333-203.867-131.333-262.667-72.533-262.667 0-262.667 72.533-203.867 131.334-131.334 131.334-58.801 131.334 0 72.533 0 0" fill="#ac745d"/>
</g>
<g clip-path="url(#clip_17)">
<path transform="matrix(1,0,0,-1,102.946,64.1539)" d="M0 0C-2.393 2.017-14.397-16.275-12.519-26.916-12.717-30.672-1.878-43.817 3.13-43.191 8.138-42.565 15.034-37.48 16.912-32.473 18.79-27.465 10.075-8.495 0 0" fill="#ffffff"/>
<path transform="matrix(1,0,0,-1,197.2679,64.1539)" d="M0 0C2.393 2.017 14.397-16.275 12.519-26.916 12.718-30.672 1.878-43.817-3.13-43.191-8.138-42.565-15.034-37.48-16.912-32.473-18.79-27.465-10.075-8.495 0 0" fill="#ffffff"/>
<path transform="matrix(1,0,0,-1,243.1657,129.081)" d="M0 0C-6.468-9.389-20.448-12.519-20.448-12.519-20.448-12.519-15.649-4.173-8.764 8.554-5.008 23.369-14.815 35.679-19.404 38.183-38.809 7.512-79.288-8.138-81.374-5.842-83.46-3.547-68.014 23.523-67.394 24.621-66.774 25.718-76.366 35.679-76.366 35.679-76.366 35.679-89.72 48.444-93.058 48.444-96.397 48.444-109.965 35.716-109.965 35.716-109.965 35.716-119.557 25.755-118.937 24.658-118.317 23.56-102.871-3.511-104.958-5.806-107.044-8.101-147.523 7.548-166.927 38.22-171.518 35.716-181.324 23.406-177.568 8.591-170.683-4.136-165.884-12.482-165.884-12.482-165.884-12.482-179.864-9.353-186.332 .037-188.21-10.396-186.332-26.462-186.332-26.462-186.332-26.462-176.734-44.824-157.746-46.075-169.014-53.378-177.36-59.638-177.151-61.098-176.942-62.559-153.574-72.365-136.881-69.444-138.967-74.243-144.393-79.251-144.184-79.877-143.975-80.503-130.413-86.345-125.823-86.762-123.051-91.561-115.391-104.497-113.095-104.915-114.347-98.447-115.391-93.231-113.513-87.388-116.433-79.042-125.554-62.945-128.118-56.925-134.795-55.673-145.347-53.414-148.149-47.953-150.361-43.638-138.577-36.268-137.995-36.268-136.047-36.268-129.465-45.35-124.108-50.074-116.989-41.096-102.1-27.798-93.273-27.591V-27.609C-84.473-27.609-69.398-41.062-62.223-50.111-56.866-45.387-50.285-36.305-48.337-36.305-47.755-36.305-35.97-43.675-38.183-47.989-40.983-53.451-51.537-55.71-58.213-56.961-60.777-62.982-69.898-79.079-72.82-87.425-70.942-93.267-71.985-98.484-73.237-104.952-70.942-104.534-63.28-91.598-60.509-86.799-55.919-86.382-42.357-80.539-42.147-79.913-41.939-79.287-47.364-74.28-49.451-69.481-32.759-72.402-9.389-62.595-9.181-61.135-8.972-59.674-17.318-53.415-28.585-46.112-9.598-44.86 0-26.499 0-26.499 0-26.499 1.878-10.432 0 0" fill="#ffffff"/>
<path transform="matrix(1,0,0,-1,170.5606,196.0213)" d="M0 0C0 0 5.425 9.598 5.008 11.058 4.59 12.519-8.346 27.333-20.454 27.333-32.562 27.333-45.498 12.519-45.915 11.058-46.332 9.598-40.907 0-40.907 0-40.907 0-30.684 2.712-27.554 2.295-30.058-1.878-37.36-4.382-38.82-4.799-38.194-7.928-34.856-14.606-34.856-14.606-34.856-14.606-28.794-11.476-20.454-11.476-12.114-11.476-6.05-14.606-6.05-14.606-6.05-14.606-2.712-7.928-2.086-4.799-3.547-4.382-10.85-1.878-13.354 2.295-10.224 2.712 0 0 0 0" fill="#ffffff"/>
<path transform="matrix(1,0,0,-1,162.849,217.72101)" d="M0 0C0 0-4.39 3.338-12.742 3.338-21.094 3.338-25.484 0-25.484 0-25.484 0-27.162-5.425-25.484-9.181-22.346-6.677-19.628-5.425-17.544-7.512-15.46-9.598-14.412-13.98-17.544-16.275-15.46-18.153-15.031-18.57-12.742-18.57-10.453-18.57-10.024-18.153-7.94-16.275-11.073-13.98-10.024-9.598-7.94-7.512-5.856-5.425-3.138-6.677 0-9.181 1.678-5.425 0 0 0 0" fill="#ffffff"/>
</g>
</svg>
