<?xml version="1.0" encoding="UTF-8" standalone="no"?>
<!-- Created with Inkscape (http://www.inkscape.org/) -->

<svg
   width="71.423225mm"
   height="19.783693mm"
   viewBox="0 0 71.423225 19.783693"
   version="1.1"
   id="svg1"
   xmlns="http://www.w3.org/2000/svg"
   xmlns:svg="http://www.w3.org/2000/svg">
  <defs
     id="defs1">
    <clipPath
       clipPathUnits="userSpaceOnUse"
       id="clipPath37">
      <path
         d="M 10.748,10.748 H 623.031 V 869.646 H 10.748 Z"
         transform="translate(-98.736605,-639.84402)"
         id="path37" />
    </clipPath>
    <clipPath
       clipPathUnits="userSpaceOnUse"
       id="clipPath39">
      <path
         d="M 88.063,620.964 H 198.514 V 660.12 H 88.063 Z"
         transform="translate(-196.5482,-650.92281)"
         id="path39" />
    </clipPath>
    <clipPath
       clipPathUnits="userSpaceOnUse"
       id="clipPath41">
      <path
         d="M 88.063,620.964 H 198.514 V 660.12 H 88.063 Z"
         transform="translate(-89.011402,-634.90482)"
         id="path41" />
    </clipPath>
    <clipPath
       clipPathUnits="userSpaceOnUse"
       id="clipPath43">
      <path
         d="M 10.748,10.748 H 623.031 V 869.646 H 10.748 Z"
         transform="translate(-98.3387,-641.03532)"
         id="path43" />
    </clipPath>
    <clipPath
       clipPathUnits="userSpaceOnUse"
       id="clipPath45">
      <path
         d="M 10.748,10.748 H 623.031 V 869.646 H 10.748 Z"
         transform="translate(-101.6714,-642.90372)"
         id="path45" />
    </clipPath>
    <clipPath
       clipPathUnits="userSpaceOnUse"
       id="clipPath47">
      <path
         d="M 10.748,10.748 H 623.031 V 869.646 H 10.748 Z"
         transform="translate(-88.670902,-636.09672)"
         id="path47" />
    </clipPath>
    <clipPath
       clipPathUnits="userSpaceOnUse"
       id="clipPath49">
      <path
         d="M 10.748,10.748 H 623.031 V 869.646 H 10.748 Z"
         transform="translate(-141.28831,-659.91462)"
         id="path49" />
    </clipPath>
    <clipPath
       clipPathUnits="userSpaceOnUse"
       id="clipPath51">
      <path
         d="m 130.615,641.036 h 110.45 v 39.156 h -110.45 z"
         transform="translate(-239.0999,-670.99401)"
         id="path51" />
    </clipPath>
    <clipPath
       clipPathUnits="userSpaceOnUse"
       id="clipPath53">
      <path
         d="m 130.615,641.036 h 110.45 v 39.156 h -110.45 z"
         transform="translate(-131.563,-654.97581)"
         id="path53" />
    </clipPath>
    <clipPath
       clipPathUnits="userSpaceOnUse"
       id="clipPath55">
      <path
         d="M 10.748,10.748 H 623.031 V 869.646 H 10.748 Z"
         transform="translate(-140.8904,-661.10642)"
         id="path55" />
    </clipPath>
    <clipPath
       clipPathUnits="userSpaceOnUse"
       id="clipPath57">
      <path
         d="M 10.748,10.748 H 623.031 V 869.646 H 10.748 Z"
         transform="translate(-144.2231,-662.97422)"
         id="path57" />
    </clipPath>
    <clipPath
       clipPathUnits="userSpaceOnUse"
       id="clipPath59">
      <path
         d="M 10.748,10.748 H 623.031 V 869.646 H 10.748 Z"
         transform="translate(-131.2226,-656.16722)"
         id="path59" />
    </clipPath>
    <clipPath
       clipPathUnits="userSpaceOnUse"
       id="clipPath61">
      <path
         d="M 10.748,10.748 H 623.031 V 869.646 H 10.748 Z"
         transform="translate(-191.2667,-639.84272)"
         id="path61" />
    </clipPath>
    <clipPath
       clipPathUnits="userSpaceOnUse"
       id="clipPath63">
      <path
         d="m 180.594,620.964 h 110.45 v 39.155 h -110.45 z"
         transform="translate(-289.07821,-650.92182)"
         id="path63" />
    </clipPath>
    <clipPath
       clipPathUnits="userSpaceOnUse"
       id="clipPath65">
      <path
         d="m 180.594,620.964 h 110.45 v 39.155 h -110.45 z"
         transform="translate(-181.5415,-634.90362)"
         id="path65" />
    </clipPath>
    <clipPath
       clipPathUnits="userSpaceOnUse"
       id="clipPath67">
      <path
         d="m 180.594,620.964 h 110.45 v 39.155 h -110.45 z"
         transform="translate(-190.8689,-641.03421)"
         id="path67" />
    </clipPath>
    <clipPath
       clipPathUnits="userSpaceOnUse"
       id="clipPath69">
      <path
         d="M 10.748,10.748 H 623.031 V 869.646 H 10.748 Z"
         transform="translate(-194.2004,-642.90261)"
         id="path69" />
    </clipPath>
    <clipPath
       clipPathUnits="userSpaceOnUse"
       id="clipPath71">
      <path
         d="M 10.748,10.748 H 623.031 V 869.646 H 10.748 Z"
         transform="translate(-181.19971,-636.09552)"
         id="path71" />
    </clipPath>
  </defs>
  <g
     id="layer1"
     transform="translate(-65.087503,-142.34584)">
    <path
       id="path36"
       d="m 0,0 c 0,0 18.716,10.198 20.777,14.074 0,0 23.31,-2.281 44.445,1.366 16.765,2.892 29.79,1.878 33.941,1.006 0.611,-0.369 0.398,-1.193 0.398,-1.193 0,0 -6.949,-16.849 -9.804,-21.667 -4.85,-1.273 -50.385,-2.019 -50.385,-2.019 0,0 -33.09,3.745 -39.372,8.433"
       style="fill:#bf9a8d;fill-opacity:1;fill-rule:nonzero;stroke:none"
       transform="matrix(0.35277776,0,0,-0.35277776,68.732553,155.8484)"
       clip-path="url(#clipPath37)" />
    <path
       id="path38"
       d="m 0,0 c 0,0 -2.171,-6.627 -5.026,-11.445 0.073,0.366 -0.463,0.366 -0.781,0.366 -2.806,0 -0.755,9.245 -0.755,9.245 L -0.52,0.91 Z"
       style="fill:#774e47;fill-opacity:1;fill-rule:nonzero;stroke:none"
       transform="matrix(0.35277776,0,0,-0.35277776,103.23831,151.94004)"
       clip-path="url(#clipPath39)" />
    <path
       id="path40"
       d="m 0,0 c 0,0 -0.948,0.439 -0.475,1.193 1.988,0.963 7.645,2.303 10.279,3.746 0,0 31.468,-7.669 53.196,-5.566 14.628,1.415 30.296,1.399 36.321,0.815 1.054,-0.191 0.476,-1.192 0.476,-1.192 0,0 -2.989,-6.092 -6.297,-10.689 -12.782,-2.248 -45.898,-0.715 -52.62,0.109 C 34.161,-10.763 5.966,-5.13 0,0"
       style="fill:#561a1a;fill-opacity:1;fill-rule:nonzero;stroke:none"
       transform="matrix(0.35277776,0,0,-0.35277776,65.301718,157.59084)"
       clip-path="url(#clipPath41)" />
    <path
       id="path42"
       d="m 0,0 c 0,0 18.718,10.198 20.777,14.074 0,0 23.31,-2.281 44.445,1.366 21.135,3.645 34.341,-0.187 34.341,-0.187 0,0 -6.951,-16.849 -9.804,-21.667 C 84.907,-7.687 39.372,-8.433 39.372,-8.433 39.372,-8.433 6.284,-4.688 0,0"
       style="fill:#c9b39a;fill-opacity:1;fill-rule:nonzero;stroke:none"
       transform="matrix(0.35277776,0,0,-0.35277776,68.592181,155.42813)"
       clip-path="url(#clipPath43)" />
    <path
       id="path44"
       d="m 0,0 c 0,0 8.219,5.307 12.091,7.485 0,0 24.027,-4.947 45.162,-1.3 21.135,3.646 37.104,2.745 37.104,2.745 0,0 -2.526,-6.836 -5.288,-11.99 C 84.22,-4.332 38.185,-5.097 38.185,-5.097 38.185,-5.097 6.282,-4.688 0,0"
       style="fill:#9a645e;fill-opacity:1;fill-rule:nonzero;stroke:none"
       transform="matrix(0.35277776,0,0,-0.35277776,69.767884,154.769)"
       clip-path="url(#clipPath45)" />
    <path
       id="path46"
       d="m 0,0 c 0,0 5.458,2.56 9.803,4.939 0,0 31.469,-7.669 53.196,-5.566 21.731,2.102 36.689,-0.377 36.689,-0.377 0,0 -2.882,-6.092 -6.189,-10.689 C 80.717,-13.941 47.601,-12.408 40.88,-11.584 34.161,-10.763 5.964,-5.13 0,0"
       style="fill:#772125;fill-opacity:1;fill-rule:nonzero;stroke:none"
       transform="matrix(0.35277776,0,0,-0.35277776,65.181597,157.17036)"
       clip-path="url(#clipPath47)" />
    <path
       id="path48"
       d="m 0,0 c 0,0 18.716,10.198 20.777,14.074 0,0 23.31,-2.281 44.445,1.366 16.765,2.892 29.79,1.878 33.941,1.006 0.611,-0.369 0.398,-1.193 0.398,-1.193 0,0 -6.949,-16.849 -9.804,-21.667 -4.85,-1.273 -50.385,-2.019 -50.385,-2.019 0,0 -33.09,3.745 -39.372,8.433"
       style="fill:#bf9a8d;fill-opacity:1;fill-rule:nonzero;stroke:none"
       transform="matrix(0.35277776,0,0,-0.35277776,83.743847,148.76794)"
       clip-path="url(#clipPath49)" />
    <path
       id="path50"
       d="m 0,0 c 0,0 -2.171,-6.627 -5.026,-11.445 0.073,0.366 -0.463,0.366 -0.781,0.366 -2.806,0 -0.755,9.245 -0.755,9.245 L -0.52,0.91 Z"
       style="fill:#774e47;fill-opacity:1;fill-rule:nonzero;stroke:none"
       transform="matrix(0.35277776,0,0,-0.35277776,118.2496,144.85937)"
       clip-path="url(#clipPath51)" />
    <path
       id="path52"
       d="m 0,0 c 0,0 -0.948,0.439 -0.475,1.193 1.988,0.963 7.645,2.304 10.279,3.746 0,0 31.468,-7.669 53.196,-5.566 14.628,1.415 30.296,1.399 36.321,0.815 1.054,-0.191 0.476,-1.192 0.476,-1.192 0,0 -2.989,-6.092 -6.297,-10.689 -12.782,-2.248 -45.898,-0.715 -52.62,0.109 C 34.161,-10.762 5.966,-5.13 0,0"
       style="fill:#561a1a;fill-opacity:1;fill-rule:nonzero;stroke:none"
       transform="matrix(0.35277776,0,0,-0.35277776,80.312977,150.51024)"
       clip-path="url(#clipPath53)" />
    <path
       id="path54"
       d="m 0,0 c 0,0 18.718,10.198 20.777,14.074 0,0 23.31,-2.281 44.445,1.365 21.135,3.646 34.341,-0.186 34.341,-0.186 0,0 -6.951,-16.849 -9.804,-21.667 C 84.907,-7.687 39.372,-8.433 39.372,-8.433 39.372,-8.433 6.284,-4.688 0,0"
       style="fill:#c9b39a;fill-opacity:1;fill-rule:nonzero;stroke:none"
       transform="matrix(0.35277776,0,0,-0.35277776,83.603475,148.34749)"
       clip-path="url(#clipPath55)" />
    <path
       id="path56"
       d="m 0,0 c 0,0 8.219,5.307 12.091,7.486 0,0 24.027,-4.948 45.162,-1.301 21.135,3.646 37.104,2.745 37.104,2.745 0,0 -2.526,-6.836 -5.288,-11.99 C 84.22,-4.332 38.185,-5.096 38.185,-5.096 38.185,-5.096 6.282,-4.688 0,0"
       style="fill:#9a645e;fill-opacity:1;fill-rule:nonzero;stroke:none"
       transform="matrix(0.35277776,0,0,-0.35277776,84.779178,147.68858)"
       clip-path="url(#clipPath57)" />
    <path
       id="path58"
       d="m 0,0 c 0,0 5.458,2.56 9.803,4.939 0,0 31.469,-7.669 53.196,-5.566 21.731,2.102 36.689,-0.377 36.689,-0.377 0,0 -2.882,-6.092 -6.189,-10.689 C 80.717,-13.941 47.601,-12.408 40.88,-11.584 34.161,-10.763 5.964,-5.13 0,0"
       style="fill:#772125;fill-opacity:1;fill-rule:nonzero;stroke:none"
       transform="matrix(0.35277776,0,0,-0.35277776,80.19289,150.08993)"
       clip-path="url(#clipPath59)" />
    <path
       id="path60"
       d="m 0,0 c 0,0 18.717,10.198 20.776,14.074 0,0 23.311,-2.281 44.445,1.366 16.766,2.892 29.791,1.878 33.943,1.006 0.61,-0.369 0.397,-1.193 0.397,-1.193 0,0 -6.949,-16.849 -9.804,-21.667 -4.85,-1.272 -50.385,-2.019 -50.385,-2.019 0,0 -33.09,3.745 -39.372,8.433"
       style="fill:#bf9a8d;fill-opacity:1;fill-rule:nonzero;stroke:none"
       transform="matrix(0.35277776,0,0,-0.35277776,101.37511,155.84886)"
       clip-path="url(#clipPath61)" />
    <path
       id="path62"
       d="m 0,0 c 0,0 -2.17,-6.627 -5.026,-11.445 0.073,0.366 -0.463,0.366 -0.781,0.366 -2.806,0 -0.755,9.245 -0.755,9.245 l 6.041,2.744 z"
       style="fill:#774e47;fill-opacity:1;fill-rule:nonzero;stroke:none"
       transform="matrix(0.35277776,0,0,-0.35277776,135.88084,151.9404)"
       clip-path="url(#clipPath63)" />
    <path
       id="path64"
       d="m 0,0 c 0,0 -0.948,0.439 -0.477,1.193 1.989,0.963 7.646,2.304 10.281,3.746 0,0 31.468,-7.669 53.196,-5.566 14.628,1.415 30.295,1.399 36.321,0.815 1.054,-0.191 0.476,-1.192 0.476,-1.192 0,0 -2.989,-6.092 -6.297,-10.689 -12.783,-2.248 -45.899,-0.715 -52.62,0.109 C 34.161,-10.763 5.966,-5.13 0,0"
       style="fill:#561a1a;fill-opacity:1;fill-rule:nonzero;stroke:none"
       transform="matrix(0.35277776,0,0,-0.35277776,97.94428,157.59126)"
       clip-path="url(#clipPath65)" />
    <path
       id="path66"
       d="m 0,0 c 0,0 18.718,10.198 20.777,14.074 0,0 23.31,-2.281 44.445,1.366 21.135,3.645 34.339,-0.187 34.339,-0.187 0,0 -6.949,-16.849 -9.802,-21.667 -4.852,-1.272 -50.387,-2.019 -50.387,-2.019 0,0 -33.09,3.745 -39.372,8.433"
       style="fill:#c9b39a;fill-opacity:1;fill-rule:nonzero;stroke:none"
       transform="matrix(0.35277776,0,0,-0.35277776,101.23478,155.42852)"
       clip-path="url(#clipPath67)" />
    <path
       id="path68"
       d="m 0,0 c 0,0 8.22,5.307 12.091,7.486 0,0 24.028,-4.948 45.163,-1.301 21.135,3.646 37.104,2.745 37.104,2.745 0,0 -2.527,-6.836 -5.289,-11.99 C 84.222,-4.332 38.186,-5.096 38.186,-5.096 38.186,-5.096 6.284,-4.688 0,0"
       style="fill:#9a645e;fill-opacity:1;fill-rule:nonzero;stroke:none"
       transform="matrix(0.35277776,0,0,-0.35277776,102.41006,154.76939)"
       clip-path="url(#clipPath69)" />
    <path
       id="path70"
       d="m 0,0 c 0,0 5.46,2.56 9.804,4.939 0,0 31.468,-7.669 53.196,-5.566 21.731,2.102 36.689,-0.377 36.689,-0.377 0,0 -2.881,-6.092 -6.189,-10.689 -12.782,-2.248 -45.898,-0.715 -52.62,0.109 C 34.161,-10.763 5.966,-5.13 0,0"
       style="fill:#772125;fill-opacity:1;fill-rule:nonzero;stroke:none"
       transform="matrix(0.35277776,0,0,-0.35277776,97.823702,157.17079)"
       clip-path="url(#clipPath71)" />
  </g>
</svg>
