<?xml version="1.0" encoding="UTF-8" standalone="no"?>
<!-- Created with Inkscape (http://www.inkscape.org/) -->

<svg
   width="69.503548mm"
   height="20.62849mm"
   viewBox="0 0 69.503548 20.62849"
   version="1.1"
   id="svg1"
   xmlns="http://www.w3.org/2000/svg"
   xmlns:svg="http://www.w3.org/2000/svg">
  <defs
     id="defs1">
    <clipPath
       clipPathUnits="userSpaceOnUse"
       id="clipPath16">
      <path
         d="M 10.748,10.748 H 623.031 V 869.646 H 10.748 Z"
         transform="translate(-542.34111,-656.89922)"
         id="path16" />
    </clipPath>
    <clipPath
       clipPathUnits="userSpaceOnUse"
       id="clipPath18">
      <path
         d="M 10.748,10.748 H 623.031 V 869.646 H 10.748 Z"
         transform="translate(-353.99731,-663.57962)"
         id="path18" />
    </clipPath>
    <clipPath
       clipPathUnits="userSpaceOnUse"
       id="clipPath20">
      <path
         d="M 10.748,10.748 H 623.031 V 869.646 H 10.748 Z"
         transform="translate(-547.75322,-699.23612)"
         id="path20" />
    </clipPath>
    <clipPath
       clipPathUnits="userSpaceOnUse"
       id="clipPath22">
      <path
         d="M 10.748,10.748 H 623.031 V 869.646 H 10.748 Z"
         transform="translate(-501.20861,-673.28162)"
         id="path22" />
    </clipPath>
  </defs>
  <g
     id="layer1"
     transform="translate(-85.460405,-143.93333)">
    <path
       id="path15"
       d="m 0,0 c 0,0 -18.128,-3.775 -19.784,4.374 -1.66,8.148 -16.743,-7.542 -16.743,-7.542 0,0 -25.189,-2.215 -27.671,6.117 -2.482,8.33 -23.028,11.283 -30.111,11.482 -7.083,0.197 -19.939,-3.879 -19.939,-3.879 l -2.573,7.692 c 0,0 -8.876,2.621 -10.16,-3.189 -1.949,-8.821 -7.196,13.585 -21.428,19.618 l 21.474,7.65 c 0,0 1.104,-11.485 3.243,-12.39 2.137,-0.905 12.069,2.952 17.888,-0.063 5.818,-3.016 25.048,-2.077 25.048,-2.077 0,0 21.963,-0.39 27.6,-17.918 l 9.104,0.339 c 0,0 7.769,5.588 3.97,5.995 l 3.703,3.072 c 0,0 1.891,-3.443 3.678,-5.137 l 2.827,3.268 c 0,0 11.072,7.062 16.392,-0.165 5.32,-7.227 13.056,-5.48 14.749,-3.692 z"
       style="fill:#88c26a;fill-opacity:1;fill-rule:nonzero;stroke:none"
       transform="matrix(0.35277776,0,0,-0.35277776,151.90392,158.88383)"
       clip-path="url(#clipPath16)" />
    <path
       id="path17"
       d="m 0,0 c 0,0 17.103,7.096 20.255,-0.598 3.151,-7.694 15.036,10.537 15.036,10.537 0,0 24.331,6.882 28.327,-0.838 3.995,-7.719 24.731,-6.78 31.727,-5.65 6.994,1.129 18.861,7.536 18.861,7.536 l 3.967,-7.077 c 0,0 9.209,-0.914 9.385,5.033 0.267,9.029 9.607,-12.002 24.716,-15.267 l -13.443,-7.88 c 0,0 -9.454,7.428 -11.723,7.916 -2.269,0.49 -11.306,-5.155 -17.587,-3.281 -6.278,1.874 -24.993,-2.642 -24.993,-2.642 0,0 -21.649,-3.721 -30.463,12.447 l -8.879,-2.037 c 0,0 1.4,0.884 5.211,1.195 L 39.004,-1.89 c 0,0 -2.163,-7.222 -4.236,-5.894 l -2.166,-3.737 c 0,0 -9.557,-9.008 -16.135,-2.902 -6.576,6.106 -13.849,2.943 -15.177,0.869 z"
       style="fill:#88c26a;fill-opacity:1;fill-rule:nonzero;stroke:none"
       transform="matrix(0.35277776,0,0,-0.35277776,85.460412,156.52713)"
       clip-path="url(#clipPath18)" />
    <path
       id="path19"
       d="m 0,0 c 0,0 -18.488,1.047 -18.919,-7.257 -0.434,-8.302 -17.674,4.978 -17.674,4.978 0,0 -25.24,-1.541 -26.46,-10.147 -1.221,-8.606 -21.103,-14.571 -28.078,-15.815 -6.974,-1.245 -11.284,-6.115 -11.284,-6.115 l -10.414,-0.991 c 0,0 -7.291,-11.717 -9.422,-6.164 -3.234,8.436 -7.09,3.463 -20.271,-4.608 l 11.898,-12.313 c 0,0 10.749,9.295 12.731,10.505 1.98,1.213 12.373,-1.131 17.681,2.713 5.308,3.845 24.465,5.766 24.465,5.766 0,0 21.663,3.637 24.641,21.808 l 9.054,1.013 c 0,0 -0.571,4.75 2.339,5.413 l 5.858,-2.598 c 0,0 4.923,-5.474 6.442,-3.535 l 6.299,-3.46 c 0,0 6.146,-6.183 10.337,1.754 4.191,7.935 12.1,7.353 14.039,5.836 z"
       style="fill:#a1c966;fill-opacity:1;fill-rule:nonzero;stroke:none"
       transform="matrix(0.35277776,0,0,-0.35277776,153.81319,143.94831)"
       clip-path="url(#clipPath20)" />
    <path
       id="path21"
       d="m 0,0 c 0,0 -18.593,9.236 -22.312,0 -3.717,-9.236 -16.207,13.339 -16.207,13.339 0,0 -26.556,9.236 -31.203,0 -4.649,-9.236 -27.442,-7.348 -35.102,-5.727 -7.661,1.624 -14.013,-2.027 -14.013,-2.027 l -11.097,3.406 c 0,0 -12.68,-12.582 -10.166,-12.07 2.515,0.514 12.275,-6.669 19.248,-4.617 6.972,2.051 27.422,-4.105 27.422,-4.105 0,0 23.708,-5.298 33.933,14.026 0,0 10.993,2.846 14.248,2.334 l 4.997,-5.499 c 0,0 2.261,-13.922 4.585,-12.383 l 5.758,-1.102 c 0,0 3.88,-9.69 11.316,-2.507 7.437,7.184 15.339,3.079 16.734,0.513 z"
       style="fill:#92cf3a;fill-opacity:1;fill-rule:nonzero;stroke:none"
       transform="matrix(0.35277776,0,0,-0.35277776,137.39329,153.10448)"
       clip-path="url(#clipPath22)" />
  </g>
</svg>
